# Blender 4.4.3
# www.blender.org
mtllib Arrows.mtl
o Cube.001
v 3.923394 -0.009372 -5.976220
v 3.923394 0.609372 -5.976220
v 9.907326 -0.009372 -0.007711
v 9.907326 0.609372 -0.007711
v 3.938817 -0.009372 5.976220
v 3.938817 0.609372 5.976220
v 2.391062 0.609372 4.432454
v 2.391062 -0.009372 4.432454
v 2.400731 0.609372 -4.449622
v 2.400731 -0.009372 -4.449622
v 6.836906 -0.009372 -0.024879
v 6.836906 0.609372 -0.024879
vn 0.7062 -0.0000 -0.7080
vn 0.7080 -0.0000 0.7062
vn -0.7062 -0.0000 0.7080
vn -0.7080 -0.0000 -0.7062
vn -0.0000 -1.0000 -0.0000
vn -0.0000 1.0000 -0.0000
vt 0.625000 0.000000
vt 0.375000 0.250000
vt 0.375000 0.000000
vt 0.625000 0.250000
vt 0.375000 0.500000
vt 0.625000 0.564663
vt 0.375000 0.564663
vt 0.375000 1.000000
vt 0.625000 0.936221
vt 0.625000 1.000000
vt 0.125000 0.500000
vt 0.188779 0.564663
vt 0.875000 0.500000
vt 0.811221 0.750000
vt 0.811221 0.564663
vt 0.451811 0.002884
vt 0.541978 0.250000
vt 0.541978 0.002884
vt 0.541978 0.498295
vt 0.451811 0.250000
vt 0.451811 0.498295
vt 0.625000 0.500000
vt 0.375000 0.936221
vt 0.188779 0.750000
vt 0.125000 0.750000
vt 0.875000 0.750000
s 0
usemtl Material.001
f 2/1/1 3/2/1 1/3/1
f 4/4/2 5/5/2 3/2/2
f 5/5/3 7/6/3 8/7/3
f 1/8/4 9/9/4 2/10/4
f 3/11/5 8/7/5 11/12/5
f 4/13/6 9/14/6 12/15/6
f 10/16/3 12/17/3 9/18/3
f 7/19/4 11/20/4 8/21/4
f 2/1/1 4/4/1 3/2/1
f 4/4/2 6/22/2 5/5/2
f 5/5/3 6/22/3 7/6/3
f 1/8/4 10/23/4 9/9/4
f 10/24/5 1/25/5 3/11/5
f 3/11/5 5/5/5 8/7/5
f 11/12/5 10/24/5 3/11/5
f 12/15/6 7/6/6 6/22/6
f 4/13/6 2/26/6 9/14/6
f 12/15/6 6/22/6 4/13/6
f 10/16/3 11/20/3 12/17/3
f 7/19/4 12/17/4 11/20/4
o Cube.002
v -7.390314 -0.009372 -5.976220
v -7.390314 0.609372 -5.976220
v -1.406383 -0.009372 -0.007711
v -1.406383 0.609372 -0.007711
v -7.374891 -0.009372 5.976220
v -7.374891 0.609372 5.976220
v -8.922647 0.609372 4.432454
v -8.922647 -0.009372 4.432454
v -8.912977 0.609372 -4.449622
v -8.912977 -0.009372 -4.449622
v -4.476802 -0.009372 -0.024879
v -4.476802 0.609372 -0.024879
vn 0.7062 -0.0000 -0.7080
vn 0.7080 -0.0000 0.7062
vn -0.7062 -0.0000 0.7080
vn -0.7080 -0.0000 -0.7062
vn -0.0000 -1.0000 -0.0000
vn -0.0000 1.0000 -0.0000
vt 0.625000 0.000000
vt 0.375000 0.250000
vt 0.375000 0.000000
vt 0.625000 0.250000
vt 0.375000 0.500000
vt 0.625000 0.564663
vt 0.375000 0.564663
vt 0.375000 1.000000
vt 0.625000 0.936221
vt 0.625000 1.000000
vt 0.125000 0.500000
vt 0.188779 0.564663
vt 0.875000 0.500000
vt 0.811221 0.750000
vt 0.811221 0.564663
vt 0.451811 0.002884
vt 0.541978 0.250000
vt 0.541978 0.002884
vt 0.541978 0.498295
vt 0.451811 0.250000
vt 0.451811 0.498295
vt 0.625000 0.500000
vt 0.375000 0.936221
vt 0.188779 0.750000
vt 0.125000 0.750000
vt 0.875000 0.750000
s 0
usemtl Material.002
f 14/27/7 15/28/7 13/29/7
f 16/30/8 17/31/8 15/28/8
f 17/31/9 19/32/9 20/33/9
f 13/34/10 21/35/10 14/36/10
f 15/37/11 20/33/11 23/38/11
f 16/39/12 21/40/12 24/41/12
f 22/42/9 24/43/9 21/44/9
f 19/45/10 23/46/10 20/47/10
f 14/27/7 16/30/7 15/28/7
f 16/30/8 18/48/8 17/31/8
f 17/31/9 18/48/9 19/32/9
f 13/34/10 22/49/10 21/35/10
f 22/50/11 13/51/11 15/37/11
f 15/37/11 17/31/11 20/33/11
f 23/38/11 22/50/11 15/37/11
f 24/41/12 19/32/12 18/48/12
f 16/39/12 14/52/12 21/40/12
f 24/41/12 18/48/12 16/39/12
f 22/42/9 23/46/9 24/43/9
f 19/45/10 24/43/10 23/46/10
o Cube.003
v -1.733460 -0.009372 -5.976220
v -1.733460 0.609372 -5.976220
v 4.250472 -0.009372 -0.007711
v 4.250472 0.609372 -0.007711
v -1.718037 -0.009372 5.976220
v -1.718037 0.609372 5.976220
v -3.265793 0.609372 4.432454
v -3.265793 -0.009372 4.432454
v -3.256124 0.609372 -4.449622
v -3.256124 -0.009372 -4.449622
v 1.180052 -0.009372 -0.024879
v 1.180052 0.609372 -0.024879
vn 0.7062 -0.0000 -0.7080
vn 0.7080 -0.0000 0.7062
vn -0.7062 -0.0000 0.7080
vn -0.7080 -0.0000 -0.7062
vn -0.0000 -1.0000 -0.0000
vn -0.0000 1.0000 -0.0000
vt 0.625000 0.000000
vt 0.375000 0.250000
vt 0.375000 0.000000
vt 0.625000 0.250000
vt 0.375000 0.500000
vt 0.625000 0.564663
vt 0.375000 0.564663
vt 0.375000 1.000000
vt 0.625000 0.936221
vt 0.625000 1.000000
vt 0.125000 0.500000
vt 0.188779 0.564663
vt 0.875000 0.500000
vt 0.811221 0.750000
vt 0.811221 0.564663
vt 0.451811 0.002884
vt 0.541978 0.250000
vt 0.541978 0.002884
vt 0.541978 0.498295
vt 0.451811 0.250000
vt 0.451811 0.498295
vt 0.625000 0.500000
vt 0.375000 0.936221
vt 0.188779 0.750000
vt 0.125000 0.750000
vt 0.875000 0.750000
s 0
usemtl Material.003
f 26/53/13 27/54/13 25/55/13
f 28/56/14 29/57/14 27/54/14
f 29/57/15 31/58/15 32/59/15
f 25/60/16 33/61/16 26/62/16
f 27/63/17 32/59/17 35/64/17
f 28/65/18 33/66/18 36/67/18
f 34/68/15 36/69/15 33/70/15
f 31/71/16 35/72/16 32/73/16
f 26/53/13 28/56/13 27/54/13
f 28/56/14 30/74/14 29/57/14
f 29/57/15 30/74/15 31/58/15
f 25/60/16 34/75/16 33/61/16
f 34/76/17 25/77/17 27/63/17
f 27/63/17 29/57/17 32/59/17
f 35/64/17 34/76/17 27/63/17
f 36/67/18 31/58/18 30/74/18
f 28/65/18 26/78/18 33/66/18
f 36/67/18 30/74/18 28/65/18
f 34/68/15 35/72/15 36/69/15
f 31/71/16 36/69/16 35/72/16
o Cube.004
v 0.000000 -0.100000 20.024986
v 0.000000 0.100000 20.024986
v -20.024986 -0.100000 0.000000
v -20.024986 0.100000 0.000000
v 20.024986 -0.100000 0.000000
v 20.024986 0.100000 0.000000
v 0.000000 -0.100000 -20.024986
v 0.000000 0.100000 -20.024986
vn -0.7071 -0.0000 0.7071
vn -0.7071 -0.0000 -0.7071
vn 0.7071 -0.0000 -0.7071
vn 0.7071 -0.0000 0.7071
vn -0.0000 -1.0000 -0.0000
vn -0.0000 1.0000 -0.0000
vt 0.625000 0.000000
vt 0.375000 0.250000
vt 0.375000 0.000000
vt 0.625000 0.250000
vt 0.375000 0.500000
vt 0.625000 0.500000
vt 0.375000 0.750000
vt 0.625000 0.750000
vt 0.375000 1.000000
vt 0.125000 0.750000
vt 0.125000 0.500000
vt 0.875000 0.500000
vt 0.625000 1.000000
vt 0.875000 0.750000
s 0
usemtl Material
f 38/79/19 39/80/19 37/81/19
f 40/82/20 43/83/20 39/80/20
f 44/84/21 41/85/21 43/83/21
f 42/86/22 37/87/22 41/85/22
f 43/83/23 37/88/23 39/89/23
f 40/90/24 42/86/24 44/84/24
f 38/79/19 40/82/19 39/80/19
f 40/82/20 44/84/20 43/83/20
f 44/84/21 42/86/21 41/85/21
f 42/86/22 38/91/22 37/87/22
f 43/83/23 41/85/23 37/88/23
f 40/90/24 38/92/24 42/86/24
