# Blender 4.4.3
# www.blender.org
mtllib ProgressBar.mtl
o Cube.001
v 5.000000 0.075000 -0.750000
v 5.000000 -0.075000 -0.750000
v 5.000000 0.075000 0.750000
v 5.000000 -0.075000 0.750000
v -5.000000 0.075000 -0.750000
v -5.000000 -0.075000 -0.750000
v -5.000000 0.075000 0.750000
v -5.000000 -0.075000 0.750000
v -4.777444 0.075000 0.507803
v -4.777444 0.075000 -0.507803
v 4.777444 0.075000 0.507803
v 4.777444 0.075000 -0.507803
v 4.777444 -0.075000 0.507803
v 4.777444 -0.075000 -0.507803
v -4.777444 -0.075000 0.507803
v -4.777444 -0.075000 -0.507803
vn -0.0000 1.0000 -0.0000
vn -0.0000 -0.0000 1.0000
vn -1.0000 -0.0000 -0.0000
vn -0.0000 -1.0000 -0.0000
vn 1.0000 -0.0000 -0.0000
vn -0.0000 -0.0000 -1.0000
vt 0.625000 0.750000
vt 0.630564 0.540366
vt 0.630564 0.709634
vt 0.875000 0.500000
vt 0.875000 0.750000
vt 0.869436 0.540366
vt 0.375000 1.000000
vt 0.375000 0.750000
vt 0.625000 0.000000
vt 0.375000 0.250000
vt 0.375000 0.000000
vt 0.125000 0.750000
vt 0.130564 0.540366
vt 0.130564 0.709634
vt 0.375000 0.500000
vt 0.369436 0.540366
vt 0.625000 0.500000
vt 0.625000 0.250000
vt 0.561249 0.750000
vt 0.438751 1.000000
vt 0.561249 1.000000
vt 0.561249 0.250000
vt 0.438751 0.000000
vt 0.438751 0.250000
vt 0.561249 0.500000
vt 0.438751 0.750000
vt 0.438751 0.500000
vt 0.869436 0.709634
vt 0.625000 1.000000
vt 0.125000 0.500000
vt 0.369436 0.709634
vt 0.561249 0.000000
s 0
usemtl Material.001
f 3/1/1 12/2/1 11/3/1
f 5/4/1 7/5/1 10/6/1
f 3/1/2 8/7/2 4/8/2
f 7/9/3 6/10/3 8/11/3
f 8/12/4 16/13/4 15/14/4
f 2/15/4 4/8/4 14/16/4
f 1/17/5 4/8/5 2/15/5
f 5/18/6 2/15/6 6/10/6
f 11/19/6 15/20/6 9/21/6
f 10/22/5 15/23/5 16/24/5
f 12/25/3 13/26/3 11/19/3
f 12/25/2 16/24/2 14/27/2
f 3/1/1 1/17/1 12/2/1
f 10/6/1 12/2/1 1/17/1
f 7/5/1 3/1/1 11/3/1
f 7/5/1 11/3/1 9/28/1
f 10/6/1 1/17/1 5/4/1
f 7/5/1 9/28/1 10/6/1
f 3/1/2 7/29/2 8/7/2
f 7/9/3 5/18/3 6/10/3
f 8/12/4 6/30/4 16/13/4
f 14/16/4 16/13/4 6/30/4
f 4/8/4 8/12/4 15/14/4
f 4/8/4 15/14/4 13/31/4
f 14/16/4 6/30/4 2/15/4
f 4/8/4 13/31/4 14/16/4
f 1/17/5 3/1/5 4/8/5
f 5/18/6 1/17/6 2/15/6
f 11/19/6 13/26/6 15/20/6
f 10/22/5 9/32/5 15/23/5
f 12/25/3 14/27/3 13/26/3
f 12/25/2 10/22/2 16/24/2
