# Blender 3.3.1
# www.blender.org
mtllib Level1.mtl
g INSTAKILL_BASE.001_Mesh
v -1.500000 1.000001 -5.000000
v -0.500000 1.000001 -5.000000
v -1.500000 1.000001 -4.000000
v -0.500000 1.000001 -4.000000
v -1.500000 2.000001 -5.000000
v -1.500000 2.000001 -4.000000
v -0.500000 2.000001 -5.000000
v -0.500000 2.000001 -4.000000
v -1.500000 3.000001 -5.000000
v -1.500000 3.000001 -4.000000
v -0.500000 3.000001 -5.000000
v -0.500000 3.000001 -4.000000
v -1.500000 4.000001 -5.000000
v -1.500000 4.000000 -3.999999
v -0.500000 4.000001 -5.000000
v -0.500000 4.000000 -3.999999
v -1.500000 5.000001 -4.999999
v -1.500000 5.000000 -3.999999
v -0.500000 5.000001 -4.999999
v -0.500000 5.000000 -3.999999
v -1.500000 6.000001 -4.999999
v -1.500000 6.000000 -3.999999
v -0.500000 6.000001 -4.999999
v -0.500000 6.000000 -3.999999
v -1.500000 7.000000 -3.999999
v -0.500000 7.000000 -3.999999
v 0.500000 6.000000 -3.999999
v 0.500000 7.000000 -3.999999
v -2.500000 0.999998 10.000000
v -2.500000 0.999999 5.000000
v -2.500000 1.000000 3.000001
v -2.500000 1.000001 -6.000000
v -2.500000 1.000002 -13.999999
v 2.500000 1.000000 2.999999
v 2.500000 0.999999 5.000000
v 2.500000 0.999999 7.000000
v -1.500000 1.000002 -13.999999
v 0.500000 1.000002 -11.999999
v 1.500000 1.000002 -11.999999
v 0.500000 1.000001 -7.000000
v 1.500000 1.000001 -7.000000
v -1.500000 1.000001 -6.000000
v 0.500000 1.000000 -2.000000
v 1.500000 1.000000 -2.000000
v 0.500000 1.000000 1.000000
v 1.500000 1.000000 1.000000
v -1.500000 1.000000 3.000000
v -0.500000 1.000000 3.000000
v 0.500000 1.000000 3.000000
v 1.500000 1.000000 3.000000
v -1.500000 0.999999 5.000000
v -0.500000 0.999999 5.000000
v 0.500000 0.999999 5.000000
v 1.500000 0.999999 5.000000
v 1.500000 0.999999 7.000000
v -1.500000 0.999998 10.000000
v -0.500000 0.999998 10.000000
v 0.500000 0.999998 10.000000
v -0.500000 0.999998 13.000000
v 0.500000 0.999998 13.000000
v -0.500000 2.999998 13.000001
v 0.500000 2.999998 13.000001
v -2.500000 3.999998 10.000001
v -1.500000 3.999998 10.000001
v -0.500000 3.999998 10.000001
v 0.500000 3.999998 10.000001
v 2.500000 6.999999 5.000001
v 1.500000 6.999999 5.000001
v -1.500000 6.999999 5.000001
v -0.500000 6.999999 5.000001
v 0.500000 6.999999 5.000001
v 2.500000 5.999999 7.000001
v 1.500000 5.999999 7.000001
v -2.500000 3.999999 5.000000
v 0.500000 8.000000 1.000001
v 1.500000 8.000000 1.000001
v -2.500000 7.000000 3.000002
v 2.500000 7.000000 3.000000
v 1.500000 7.000000 3.000001
v -1.500000 7.000000 3.000001
v -0.500000 7.000000 3.000001
v 0.500000 7.000000 3.000001
v 0.500000 9.000000 -1.999999
v 1.500000 9.000000 -1.999999
v 0.500000 9.000001 -6.999999
v 1.500000 9.000001 -6.999999
v -2.500000 9.000001 -5.999999
v -1.500000 9.000001 -5.999999
v 1.500000 2.000001 -7.000000
v 1.500000 3.000001 -7.000000
v 1.500000 4.000001 -7.000000
v 1.500000 5.000001 -6.999999
v 1.500000 6.000001 -6.999999
v 1.500000 7.000001 -6.999999
v 1.500000 8.000001 -6.999999
v 0.500000 8.000001 -6.999999
v 0.500000 7.000001 -6.999999
v 0.500000 6.000001 -6.999999
v 0.500000 5.000001 -6.999999
v 0.500000 4.000001 -7.000000
v 0.500000 3.000001 -7.000000
v 0.500000 2.000001 -7.000000
v 0.500000 8.000002 -11.999998
v 1.500000 8.000002 -11.999998
v -2.500000 3.000002 -13.999998
v -1.500000 3.000002 -13.999998
v -1.500000 1.999998 10.000000
v -1.500000 2.999998 10.000001
v -2.500000 1.999998 10.000000
v -2.500000 2.999998 10.000001
v -0.500000 1.999998 10.000000
v -0.500000 2.999998 10.000001
v 0.500000 1.999998 10.000000
v 0.500000 2.999998 10.000001
v -2.500000 0.999999 6.000000
v -1.500000 0.999999 6.000000
v -2.500000 1.999999 6.000000
v -1.500000 1.999999 6.000000
v -2.500000 2.999999 6.000000
v -1.500000 2.999999 6.000000
v -2.500000 2.999999 7.000000
v -1.500000 2.999999 7.000000
v -2.500000 3.999999 7.000000
v -1.500000 3.999999 7.000000
v -1.500000 3.999999 5.000000
v -2.500000 4.999999 5.000001
v -1.500000 4.999999 5.000001
vn -0.0000 -0.0000 1.0000
vn -0.0000 -0.0000 -1.0000
vn -0.0000 -0.7071 0.7071
vt 0.000000 0.000000
vt 0.000000 0.000000
vt 0.825000 0.591667
vt 0.775000 0.591667
vt 0.000000 0.000000
vt 0.825000 0.591667
vt 0.000000 0.000000
vt 0.775000 0.591667
vt 0.000000 0.000000
vt 0.825000 0.591667
vt 0.000000 0.000000
vt 0.775000 0.591667
vt 0.000000 0.000000
vt 0.825000 0.591667
vt 0.000000 0.000000
vt 0.775000 0.591667
vt 0.000000 0.000000
vt 0.825000 0.591667
vt 0.000000 0.000000
vt 0.775000 0.591667
vt 0.000000 0.000000
vt 0.825000 0.591667
vt 0.000000 0.000000
vt 0.775000 0.591667
vt 0.825000 0.591667
vt 0.775000 0.591667
vt 0.775000 0.591667
vt 0.775000 0.591667
vt 0.875000 0.708333
vt 0.875000 0.666667
vt 0.875000 0.650000
vt 0.875000 0.575000
vt 0.875000 0.508333
vt 0.625000 0.650000
vt 0.625000 0.666667
vt 0.625000 0.683333
vt 0.825000 0.508333
vt 0.725000 0.525000
vt 0.675000 0.525000
vt 0.725000 0.566667
vt 0.675000 0.566667
vt 0.825000 0.575000
vt 0.725000 0.608333
vt 0.675000 0.608333
vt 0.725000 0.633333
vt 0.675000 0.633333
vt 0.825000 0.650000
vt 0.775000 0.650000
vt 0.725000 0.650000
vt 0.675000 0.650000
vt 0.825000 0.666667
vt 0.775000 0.666667
vt 0.725000 0.666667
vt 0.675000 0.666667
vt 0.675000 0.683333
vt 0.825000 0.708333
vt 0.775000 0.708333
vt 0.725000 0.708333
vt 0.775000 0.733333
vt 0.725000 0.733333
vt 0.775000 0.733333
vt 0.725000 0.733333
vt 0.875000 0.708333
vt 0.825000 0.708333
vt 0.775000 0.708333
vt 0.725000 0.708333
vt 0.625000 0.666667
vt 0.675000 0.666667
vt 0.825000 0.666667
vt 0.775000 0.666667
vt 0.725000 0.666667
vt 0.625000 0.683333
vt 0.675000 0.683333
vt 0.875000 0.666667
vt 0.725000 0.633333
vt 0.675000 0.633333
vt 0.875000 0.650000
vt 0.625000 0.650000
vt 0.675000 0.650000
vt 0.825000 0.650000
vt 0.775000 0.650000
vt 0.725000 0.650000
vt 0.725000 0.608333
vt 0.675000 0.608333
vt 0.725000 0.566667
vt 0.675000 0.566667
vt 0.875000 0.575000
vt 0.825000 0.575000
vt 0.675000 0.566667
vt 0.675000 0.566667
vt 0.675000 0.566667
vt 0.675000 0.566667
vt 0.675000 0.566667
vt 0.675000 0.566667
vt 0.675000 0.566667
vt 0.725000 0.566667
vt 0.725000 0.566667
vt 0.725000 0.566667
vt 0.725000 0.566667
vt 0.725000 0.566667
vt 0.725000 0.566667
vt 0.725000 0.566667
vt 0.725000 0.525000
vt 0.675000 0.525000
vt 0.875000 0.508333
vt 0.825000 0.508333
vt 0.825000 0.708333
vt 0.825000 0.708333
vt 0.875000 0.708333
vt 0.875000 0.708333
vt 0.775000 0.708333
vt 0.775000 0.708333
vt 0.725000 0.708333
vt 0.725000 0.708333
vt 0.875000 0.675000
vt 0.825000 0.675000
vt 0.875000 0.675000
vt 0.825000 0.675000
vt 0.875000 0.675000
vt 0.825000 0.675000
vt 0.875000 0.675000
vt 0.825000 0.675000
vt 0.875000 0.675000
vt 0.825000 0.675000
vt 0.825000 0.666667
vt 0.875000 0.666667
vt 0.825000 0.666667
s 0
g off
g INSTAKILL_BASE.001_INSTAKILL
usemtl INSTAKILL
f 4/4/1 6/6/1 3/3/1
f 5/5/2 11/11/2 7/7/2
f 1/1/2 7/7/2 2/2/2
f 12/12/1 14/14/1 10/10/1
f 8/8/1 10/10/1 6/6/1
f 16/16/1 18/18/1 14/14/1
f 9/9/2 15/15/2 11/11/2
f 17/17/2 23/23/2 19/19/2
f 13/13/2 19/19/2 15/15/2
f 24/24/1 25/25/1 22/22/1
f 20/20/1 22/22/1 18/18/1
f 24/24/1 28/28/1 26/26/1
f 68/68/1 35/35/1 67/67/1
f 74/74/1 51/51/1 125/125/1
f 83/83/1 44/44/1 84/84/1
f 81/81/1 49/49/1 82/82/1
f 109/109/1 56/56/1 107/107/1
f 70/70/1 53/53/1 71/71/1
f 71/71/1 54/54/1 68/68/1
f 100/100/1 90/90/1 91/91/1
f 98/98/1 92/92/1 93/93/1
f 69/69/1 52/52/1 70/70/1
f 73/73/1 36/36/1 72/72/1
f 75/75/1 46/46/1 76/76/1
f 82/82/1 50/50/1 79/79/1
f 85/85/1 95/95/1 86/86/1
f 77/77/1 47/47/1 80/80/1
f 96/96/1 94/94/1 95/95/1
f 87/87/1 42/42/1 88/88/1
f 101/101/1 89/89/1 90/90/1
f 102/102/1 41/41/1 89/89/1
f 97/97/1 93/93/1 94/94/1
f 107/107/1 57/57/1 111/111/1
f 103/103/1 39/39/1 104/104/1
f 111/111/1 58/58/1 113/113/1
f 99/99/1 91/91/1 92/92/1
f 80/80/1 48/48/1 81/81/1
f 79/79/1 34/34/1 78/78/1
f 105/105/1 37/37/1 106/106/1
f 61/61/1 60/60/1 62/62/1
f 65/65/1 114/114/1 66/66/1
f 112/112/1 113/113/1 114/114/1
f 64/64/1 112/112/1 65/65/1
f 108/108/1 111/111/1 112/112/1
f 63/63/1 108/108/1 64/64/1
f 110/110/1 107/107/1 108/108/1
s 1
f 116/116/1 117/117/1 115/115/1
f 120/120/3 121/121/3 119/119/3
f 118/118/1 119/119/3 117/117/1
f 122/122/3 123/123/1 121/121/3
s 0
f 125/125/1 126/126/1 74/74/1
f 4/4/1 8/8/1 6/6/1
f 5/5/2 9/9/2 11/11/2
f 1/1/2 5/5/2 7/7/2
f 12/12/1 16/16/1 14/14/1
f 8/8/1 12/12/1 10/10/1
f 16/16/1 20/20/1 18/18/1
f 9/9/2 13/13/2 15/15/2
f 17/17/2 21/21/2 23/23/2
f 13/13/2 17/17/2 19/19/2
f 24/24/1 26/26/1 25/25/1
f 20/20/1 24/24/1 22/22/1
f 24/24/1 27/27/1 28/28/1
f 68/68/1 54/54/1 35/35/1
f 74/74/1 30/30/1 51/51/1
f 83/83/1 43/43/1 44/44/1
f 81/81/1 48/48/1 49/49/1
f 109/109/1 29/29/1 56/56/1
f 70/70/1 52/52/1 53/53/1
f 71/71/1 53/53/1 54/54/1
f 100/100/1 101/101/1 90/90/1
f 98/98/1 99/99/1 92/92/1
f 69/69/1 51/51/1 52/52/1
f 73/73/1 55/55/1 36/36/1
f 75/75/1 45/45/1 46/46/1
f 82/82/1 49/49/1 50/50/1
f 85/85/1 96/96/1 95/95/1
f 77/77/1 31/31/1 47/47/1
f 96/96/1 97/97/1 94/94/1
f 87/87/1 32/32/1 42/42/1
f 101/101/1 102/102/1 89/89/1
f 102/102/1 40/40/1 41/41/1
f 97/97/1 98/98/1 93/93/1
f 107/107/1 56/56/1 57/57/1
f 103/103/1 38/38/1 39/39/1
f 111/111/1 57/57/1 58/58/1
f 99/99/1 100/100/1 91/91/1
f 80/80/1 47/47/1 48/48/1
f 79/79/1 50/50/1 34/34/1
f 105/105/1 33/33/1 37/37/1
f 61/61/1 59/59/1 60/60/1
f 65/65/1 112/112/1 114/114/1
f 112/112/1 111/111/1 113/113/1
f 64/64/1 108/108/1 112/112/1
f 108/108/1 107/107/1 111/111/1
f 63/63/1 110/110/1 108/108/1
f 110/110/1 109/109/1 107/107/1
s 1
f 116/116/1 118/118/1 117/117/1
f 120/120/3 122/122/3 121/121/3
f 118/118/1 120/120/3 119/119/3
f 122/122/3 124/124/1 123/123/1
s 0
f 125/125/1 127/127/1 126/126/1
g INSTAKILL_SIDES.001_Mesh
v -1.500000 0.999999 4.000000
v -1.500000 7.000000 4.000001
v -1.500000 6.999999 5.000001
v -1.500000 1.000001 -5.000000
v -0.500000 1.000001 -5.000000
v -1.500000 1.000001 -4.000000
v -0.500000 1.000001 -4.000000
v -1.500000 2.000001 -5.000000
v -1.500000 2.000001 -4.000000
v -0.500000 2.000001 -5.000000
v -0.500000 2.000001 -4.000000
v -1.500000 3.000001 -5.000000
v -1.500000 3.000001 -4.000000
v -0.500000 3.000001 -5.000000
v -0.500000 3.000001 -4.000000
v -1.500000 4.000001 -5.000000
v -1.500000 4.000000 -3.999999
v -0.500000 4.000001 -5.000000
v -0.500000 4.000000 -3.999999
v -1.500000 5.000001 -4.999999
v -1.500000 5.000000 -3.999999
v -0.500000 5.000001 -4.999999
v -0.500000 5.000000 -3.999999
v -1.500000 6.000001 -4.999999
v -1.500000 6.000000 -3.999999
v -0.500000 6.000001 -4.999999
v -0.500000 6.000000 -3.999999
v -1.500000 7.000001 -4.999999
v -1.500000 7.000000 -3.999999
v -0.500000 7.000001 -4.999999
v 0.500000 6.000000 -3.999999
v 0.500000 7.000000 -3.999999
v 1.500000 6.000001 -4.999999
v 1.500000 6.000000 -3.999999
v 1.500000 7.000001 -4.999999
v 1.500000 7.000000 -3.999999
v -1.500000 6.000001 -5.999999
v -0.500000 6.000001 -5.999999
v -1.500000 7.000001 -5.999999
v -0.500000 7.000001 -5.999999
v 0.500000 6.000000 -2.999999
v 0.500000 7.000000 -2.999999
v 1.500000 6.000000 -2.999999
v 1.500000 7.000000 -2.999999
v -2.500000 1.000003 -15.000000
v -2.500000 0.999998 10.000000
v -2.500000 0.999999 9.000000
v -2.500000 0.999999 5.000000
v -2.500000 0.999999 4.000000
v -2.500000 1.000000 3.000001
v -2.500000 1.000000 2.000001
v -2.500000 1.000001 -6.000000
v -2.500000 1.000001 -7.000000
v -2.500000 1.000002 -13.999999
v 2.500000 1.000000 1.999999
v 2.500000 1.000000 2.999999
v 2.500000 0.999999 4.000000
v 2.500000 0.999999 5.000000
v 2.500000 0.999999 6.000000
v 2.500000 0.999999 7.000000
v -1.500000 1.000003 -15.000000
v -1.500000 1.000002 -13.999999
v 0.500000 1.000002 -12.999999
v 1.500000 1.000002 -13.000000
v 0.500000 1.000002 -11.999999
v 1.500000 1.000002 -11.999999
v 0.500000 1.000001 -8.000000
v 1.500000 1.000001 -8.000000
v -1.500000 1.000001 -7.000000
v 0.500000 1.000001 -7.000000
v 1.500000 1.000001 -7.000000
v -1.500000 1.000001 -6.000000
v 0.500000 1.000000 -3.000000
v 1.500000 1.000000 -3.000000
v 0.500000 1.000000 -2.000000
v 1.500000 1.000000 -2.000000
v 0.500000 1.000000 0.000000
v 1.500000 1.000000 0.000000
v 0.500000 1.000000 1.000000
v 1.500000 1.000000 1.000000
v 1.500000 0.999999 6.000000
v 1.500000 0.999999 7.000000
v 0.500000 0.999999 9.000000
v 0.500000 0.999998 10.000000
v -0.500000 0.999998 12.000000
v 0.500000 0.999998 12.000000
v -0.500000 0.999998 13.000000
v 0.500000 0.999998 13.000000
v -0.500000 2.999998 12.000001
v 0.500000 2.999998 12.000001
v -0.500000 2.999998 13.000001
v 0.500000 2.999998 13.000001
v -2.500000 3.999998 10.000001
v -2.500000 3.999999 9.000001
v 0.500000 3.999999 9.000001
v 0.500000 3.999998 10.000001
v 2.500000 7.000000 4.000001
v 2.500000 6.999999 5.000001
v 2.500000 5.999999 6.000001
v 2.500000 5.999999 7.000001
v 1.500000 5.999999 6.000001
v 1.500000 5.999999 7.000001
v -2.500000 3.999999 4.000000
v 0.500000 8.000000 0.000001
v 1.500000 8.000000 0.000001
v 0.500000 8.000000 1.000001
v 1.500000 8.000000 1.000001
v -2.500000 7.000000 3.000002
v -2.500000 7.000000 2.000002
v 2.500000 7.000000 2.000000
v 2.500000 7.000000 3.000000
v 0.500000 9.000001 -2.999999
v 1.500000 9.000001 -2.999999
v 0.500000 9.000000 -1.999999
v 1.500000 9.000000 -1.999999
v 0.500000 9.000001 -7.999999
v 1.500000 9.000001 -7.999999
v 0.500000 9.000001 -6.999999
v 1.500000 9.000001 -6.999999
v -2.500000 9.000001 -5.999999
v -2.500000 9.000001 -6.999999
v -1.500000 9.000001 -6.999999
v -1.500000 9.000001 -5.999999
v 1.500000 2.000001 -7.000000
v 1.500000 3.000001 -7.000000
v 1.500000 4.000001 -7.000000
v 1.500000 5.000001 -6.999999
v 1.500000 6.000001 -6.999999
v 1.500000 7.000001 -6.999999
v 1.500000 8.000001 -6.999999
v 0.500000 8.000001 -6.999999
v 0.500000 7.000001 -6.999999
v 0.500000 6.000001 -6.999999
v 0.500000 5.000001 -6.999999
v 0.500000 4.000001 -7.000000
v 0.500000 3.000001 -7.000000
v 0.500000 2.000001 -7.000000
v 0.500000 2.000001 -8.000000
v 0.500000 3.000001 -8.000000
v 0.500000 4.000001 -8.000000
v 0.500000 5.000001 -7.999999
v 0.500000 6.000001 -7.999999
v 0.500000 7.000001 -7.999999
v 0.500000 8.000001 -7.999999
v 1.500000 8.000001 -7.999999
v 1.500000 7.000001 -7.999999
v 1.500000 6.000001 -7.999999
v 1.500000 5.000001 -7.999999
v 1.500000 4.000001 -8.000000
v 1.500000 3.000001 -8.000000
v 1.500000 2.000001 -8.000000
v 0.500000 5.000002 -11.999998
v 0.500000 6.000002 -11.999998
v 1.500000 6.000002 -11.999998
v 1.500000 5.000002 -11.999998
v 0.500000 8.000002 -12.999998
v 1.500000 8.000002 -12.999999
v 0.500000 8.000002 -11.999998
v 1.500000 8.000002 -11.999998
v -2.500000 3.000002 -13.999998
v -2.500000 3.000002 -14.999999
v -1.500000 3.000002 -14.999999
v -1.500000 3.000002 -13.999998
v 0.500000 1.999998 10.000000
v 0.500000 2.999998 10.000001
v 0.500000 1.999999 9.000000
v 0.500000 2.999999 9.000001
v -2.500000 1.999998 10.000000
v -2.500000 2.999998 10.000001
v -2.500000 1.999999 9.000000
v -2.500000 2.999999 9.000001
v -2.500000 0.999999 6.000000
v -1.500000 0.999999 5.000000
v -1.500000 0.999999 6.000000
v -2.500000 1.999999 6.000000
v -1.500000 1.999999 6.000000
v -2.500000 1.999999 5.000000
v -1.500000 1.999999 5.000000
v -2.500000 2.999999 6.000000
v -1.500000 2.999999 6.000000
v -2.500000 2.999999 5.000000
v -1.500000 2.999999 5.000000
v -2.500000 3.999999 6.000000
v -1.500000 3.999999 6.000000
v -1.500000 3.999999 5.000000
v -2.500000 2.999999 7.000000
v -1.500000 2.999999 7.000000
v -2.500000 3.999999 7.000000
v -1.500000 3.999999 7.000000
v -2.500000 3.999999 5.000000
v -2.500000 5.000000 4.000001
v -2.500000 4.999999 5.000001
vn -1.0000 -0.0000 -0.0000
vn 1.0000 -0.0000 -0.0000
vt 0.825000 0.658333
vt 0.825000 0.658333
vt 0.825000 0.666667
vt 0.825000 0.583333
vt 0.000000 0.000000
vt 0.825000 0.591667
vt 0.000000 0.000000
vt 0.825000 0.583333
vt 0.825000 0.591667
vt 0.000000 0.000000
vt 0.000000 0.000000
vt 0.825000 0.583333
vt 0.825000 0.591667
vt 0.000000 0.000000
vt 0.000000 0.000000
vt 0.825000 0.583333
vt 0.825000 0.591667
vt 0.000000 0.000000
vt 0.000000 0.000000
vt 0.825000 0.583333
vt 0.825000 0.591667
vt 0.000000 0.000000
vt 0.000000 0.000000
vt 0.825000 0.583333
vt 0.825000 0.591667
vt 0.000000 0.000000
vt 0.000000 0.000000
vt 0.825000 0.583333
vt 0.825000 0.591667
vt 0.000000 0.000000
vt 0.775000 0.591667
vt 0.775000 0.591667
vt 0.000000 0.000000
vt 0.000000 0.000000
vt 0.000000 0.000000
vt 0.000000 0.000000
vt 0.825000 0.583333
vt 0.000000 0.000000
vt 0.825000 0.583333
vt 0.000000 0.000000
vt 0.775000 0.591667
vt 0.775000 0.591667
vt 0.000000 0.000000
vt 0.000000 0.000000
vt 0.625000 0.250000
vt 0.625000 0.041667
vt 0.625000 0.050000
vt 0.875000 0.666667
vt 0.625000 0.083333
vt 0.625000 0.091667
vt 0.625000 0.100000
vt 0.625000 0.108333
vt 0.625000 0.175000
vt 0.625000 0.183333
vt 0.625000 0.241667
vt 0.625000 0.641667
vt 0.625000 0.650000
vt 0.625000 0.658333
vt 0.625000 0.666667
vt 0.625000 0.675000
vt 0.625000 0.683333
vt 0.825000 0.500000
vt 0.825000 0.508333
vt 0.725000 0.516667
vt 0.675000 0.516667
vt 0.725000 0.525000
vt 0.675000 0.525000
vt 0.725000 0.558333
vt 0.675000 0.558333
vt 0.825000 0.566667
vt 0.725000 0.566667
vt 0.675000 0.566667
vt 0.825000 0.575000
vt 0.725000 0.600000
vt 0.675000 0.600000
vt 0.725000 0.608333
vt 0.675000 0.608333
vt 0.725000 0.625000
vt 0.675000 0.625000
vt 0.725000 0.633333
vt 0.675000 0.633333
vt 0.675000 0.675000
vt 0.675000 0.683333
vt 0.725000 0.700000
vt 0.725000 0.708333
vt 0.775000 0.725000
vt 0.725000 0.725000
vt 0.775000 0.733333
vt 0.725000 0.733333
vt 0.775000 0.725000
vt 0.725000 0.725000
vt 0.775000 0.733333
vt 0.725000 0.733333
vt 0.625000 0.041667
vt 0.625000 0.050000
vt 0.725000 0.700000
vt 0.725000 0.708333
vt 0.625000 0.658333
vt 0.625000 0.666667
vt 0.625000 0.675000
vt 0.625000 0.683333
vt 0.675000 0.675000
vt 0.675000 0.683333
vt 0.875000 0.658333
vt 0.625000 0.091667
vt 0.725000 0.625000
vt 0.675000 0.625000
vt 0.725000 0.633333
vt 0.675000 0.633333
vt 0.625000 0.100000
vt 0.625000 0.108333
vt 0.625000 0.641667
vt 0.625000 0.650000
vt 0.725000 0.600000
vt 0.675000 0.600000
vt 0.725000 0.608333
vt 0.675000 0.608333
vt 0.725000 0.558333
vt 0.675000 0.558333
vt 0.725000 0.566667
vt 0.675000 0.566667
vt 0.625000 0.175000
vt 0.625000 0.183333
vt 0.825000 0.566667
vt 0.825000 0.575000
vt 0.675000 0.566667
vt 0.675000 0.566667
vt 0.675000 0.566667
vt 0.675000 0.566667
vt 0.675000 0.566667
vt 0.675000 0.566667
vt 0.675000 0.566667
vt 0.725000 0.566667
vt 0.725000 0.566667
vt 0.725000 0.566667
vt 0.725000 0.566667
vt 0.725000 0.566667
vt 0.725000 0.566667
vt 0.725000 0.566667
vt 0.725000 0.558333
vt 0.725000 0.558333
vt 0.725000 0.558333
vt 0.725000 0.558333
vt 0.725000 0.558333
vt 0.725000 0.558333
vt 0.725000 0.558333
vt 0.675000 0.558333
vt 0.675000 0.558333
vt 0.675000 0.558333
vt 0.675000 0.558333
vt 0.675000 0.558333
vt 0.675000 0.558333
vt 0.675000 0.558333
vt 0.725000 0.558333
vt 0.725000 0.558333
vt 0.675000 0.558333
vt 0.675000 0.558333
vt 0.725000 0.516667
vt 0.675000 0.516667
vt 0.725000 0.525000
vt 0.675000 0.525000
vt 0.625000 0.241667
vt 0.625000 0.250000
vt 0.825000 0.500000
vt 0.825000 0.508333
vt 0.725000 0.708333
vt 0.725000 0.708333
vt 0.725000 0.700000
vt 0.725000 0.700000
vt 0.625000 0.041667
vt 0.625000 0.041667
vt 0.625000 0.050000
vt 0.625000 0.050000
vt 0.875000 0.675000
vt 0.825000 0.666667
vt 0.825000 0.675000
vt 0.875000 0.675000
vt 0.825000 0.675000
vt 0.875000 0.666667
vt 0.825000 0.666667
vt 0.875000 0.675000
vt 0.825000 0.675000
vt 0.875000 0.666667
vt 0.825000 0.666667
vt 0.875000 0.675000
vt 0.825000 0.675000
vt 0.825000 0.666667
vt 0.875000 0.675000
vt 0.825000 0.675000
vt 0.875000 0.675000
vt 0.825000 0.675000
vt 0.625000 0.083333
vt 0.875000 0.666667
vt 0.875000 0.658333
vt 0.875000 0.666667
s 0
g off
g INSTAKILL_SIDES.001_SideDarkerINSTAKILL
usemtl SideDarkerINSTAKILL
f 129/129/4 300/302/4 130/130/4
f 133/133/4 135/135/4 131/131/4
f 132/132/5 138/138/5 134/134/5
f 137/137/5 142/142/5 138/138/5
f 136/136/4 139/139/4 135/135/4
f 140/140/4 143/143/4 139/139/4
f 141/141/5 146/146/5 142/142/5
f 144/144/4 147/147/4 143/143/4
f 145/145/5 150/150/5 146/146/5
f 149/149/5 154/154/5 150/150/5
f 148/148/4 151/151/4 147/147/4
f 152/152/4 155/155/4 151/151/4
f 158/158/4 169/169/4 159/159/4
f 160/160/5 163/163/5 161/161/5
f 155/155/4 164/164/4 151/151/4
f 153/153/5 167/167/5 157/157/5
f 163/163/5 170/170/5 161/161/5
f 297/299/4 173/173/4 295/297/4
f 283/285/4 192/193/4 285/287/4
f 231/233/4 206/207/4 233/235/4
f 228/229/4 209/210/4 229/230/4
f 242/244/5 201/202/5 240/242/5
f 239/241/4 202/203/4 241/243/4
f 267/269/4 263/265/4 262/264/4
f 270/272/4 260/262/4 259/261/4
f 291/293/5 210/211/5 293/295/5
f 225/226/5 184/185/5 224/225/5
f 227/228/5 186/187/5 226/227/5
f 279/281/4 269/271/4 280/282/4
f 236/238/4 177/178/4 235/237/4
f 243/245/4 258/260/4 245/247/4
f 251/253/5 195/196/5 278/280/5
f 238/240/5 182/183/5 237/239/5
f 250/252/5 196/197/5 249/251/5
f 268/270/4 262/264/4 261/263/4
f 246/248/5 272/274/5 244/246/5
f 269/271/4 261/263/4 260/262/4
f 257/259/5 273/275/5 272/274/5
f 256/258/5 274/276/5 273/275/5
f 271/273/4 259/261/4 258/260/4
f 219/220/5 213/214/5 217/218/5
f 248/250/4 179/180/4 247/249/4
f 281/283/5 275/277/5 282/284/5
f 252/254/5 278/280/5 277/279/5
f 253/255/5 277/279/5 276/278/5
f 254/256/5 276/278/5 275/277/5
f 255/257/5 275/277/5 274/276/5
f 286/288/5 191/192/5 284/286/5
f 266/268/4 264/266/4 263/265/4
f 216/217/4 214/215/4 218/219/4
f 265/267/4 197/198/4 264/266/4
f 230/232/4 175/176/4 317/319/4
f 290/292/5 188/189/5 289/291/5
f 288/290/4 181/182/4 287/289/4
f 234/236/5 205/206/5 232/234/5
f 223/224/5 294/296/5 222/223/5
f 292/294/5 293/295/5 294/296/5
f 221/222/4 296/298/4 220/221/4
f 298/300/4 295/297/4 296/298/4
s 1
f 305/307/5 307/309/5 303/305/5
f 300/302/5 303/305/5 301/303/5
f 299/301/4 304/306/4 175/175/4
f 302/304/4 308/310/4 304/306/4
f 306/308/4 317/320/4 308/310/4
f 309/311/5 311/313/5 307/309/5
f 311/313/5 314/316/5 307/309/5
f 306/308/4 315/317/4 310/312/4
s 0
f 317/320/4 318/321/4 230/231/4
f 129/129/4 128/128/4 300/302/4
f 133/133/4 136/136/4 135/135/4
f 132/132/5 137/137/5 138/138/5
f 137/137/5 141/141/5 142/142/5
f 136/136/4 140/140/4 139/139/4
f 140/140/4 144/144/4 143/143/4
f 141/141/5 145/145/5 146/146/5
f 144/144/4 148/148/4 147/147/4
f 145/145/5 149/149/5 150/150/5
f 149/149/5 153/153/5 154/154/5
f 148/148/4 152/152/4 151/151/4
f 152/152/4 156/156/4 155/155/4
f 158/158/4 168/168/4 169/169/4
f 160/160/5 162/162/5 163/163/5
f 155/155/4 166/166/4 164/164/4
f 153/153/5 165/165/5 167/167/5
f 163/163/5 171/171/5 170/170/5
f 297/299/4 174/174/4 173/173/4
f 283/285/4 190/191/4 192/193/4
f 231/233/4 204/205/4 206/207/4
f 228/229/4 208/209/4 209/210/4
f 242/244/5 203/204/5 201/202/5
f 239/241/4 200/201/4 202/203/4
f 267/269/4 266/268/4 263/265/4
f 270/272/4 269/271/4 260/262/4
f 291/293/5 211/212/5 210/211/5
f 225/226/5 185/186/5 184/185/5
f 227/228/5 187/188/5 186/187/5
f 279/281/4 268/270/4 269/271/4
f 236/238/4 178/179/4 177/178/4
f 243/245/4 271/273/4 258/260/4
f 251/253/5 198/199/5 195/196/5
f 238/240/5 183/184/5 182/183/5
f 250/252/5 199/200/5 196/197/5
f 268/270/4 267/269/4 262/264/4
f 246/248/5 257/259/5 272/274/5
f 269/271/4 268/270/4 261/263/4
f 257/259/5 256/258/5 273/275/5
f 256/258/5 255/257/5 274/276/5
f 271/273/4 270/272/4 259/261/4
f 219/220/5 215/216/5 213/214/5
f 248/250/4 180/181/4 179/180/4
f 281/283/5 274/276/5 275/277/5
f 252/254/5 251/253/5 278/280/5
f 253/255/5 252/254/5 277/279/5
f 254/256/5 253/255/5 276/278/5
f 255/257/5 254/256/5 275/277/5
f 286/288/5 193/194/5 191/192/5
f 266/268/4 265/267/4 264/266/4
f 216/217/4 212/213/4 214/215/4
f 265/267/4 194/195/4 197/198/4
f 230/232/4 176/177/4 175/176/4
f 290/292/5 189/190/5 188/189/5
f 288/290/4 172/172/4 181/182/4
f 234/236/5 207/208/5 205/206/5
f 223/224/5 292/294/5 294/296/5
f 292/294/5 291/293/5 293/295/5
f 221/222/4 298/300/4 296/298/4
f 298/300/4 297/299/4 295/297/4
s 1
f 305/307/5 309/311/5 307/309/5
f 300/302/5 305/307/5 303/305/5
f 299/301/4 302/304/4 304/306/4
f 302/304/4 306/308/4 308/310/4
f 306/308/4 310/312/4 317/320/4
f 309/311/5 312/314/5 311/313/5
f 311/313/5 316/318/5 314/316/5
f 306/308/4 313/315/4 315/317/4
s 0
f 317/320/4 319/322/4 318/321/4
g SAFEGROUND_BASE.001_Mesh
v -2.500000 -0.000002 15.000000
v -2.500000 0.999998 15.000000
v -2.500000 0.000002 -15.000000
v -2.500000 1.000003 -15.000000
v 2.500000 -0.000002 15.000000
v 2.500000 0.999998 15.000000
v 2.500000 0.000002 -15.000000
v 2.500000 1.000003 -15.000000
v -2.500000 0.000002 -14.000000
v -2.500000 0.000002 -13.000000
v -2.500000 0.000002 -12.000000
v -2.500000 0.000002 -11.000000
v -2.500000 0.000002 -10.000000
v -2.500000 0.000001 -9.000000
v -2.500000 0.000001 -8.000000
v -2.500000 0.000001 -7.000000
v -2.500000 0.000001 -6.000000
v -2.500000 0.000001 -5.000000
v -2.500000 0.000001 -4.000000
v -2.500000 0.000000 -3.000001
v -2.500000 0.000000 -2.000001
v -2.500000 0.000000 -1.000001
v -2.500000 0.000000 -0.000001
v -2.500000 -0.000000 0.999999
v -2.500000 -0.000000 1.999999
v -2.500000 -0.000000 2.999999
v -2.500000 -0.000001 4.000000
v -2.500000 -0.000001 5.000000
v -2.500000 -0.000001 6.000000
v -2.500000 -0.000001 7.000000
v -2.500000 -0.000001 8.000000
v -2.500000 -0.000001 8.999999
v -2.500000 -0.000002 9.999999
v -2.500000 -0.000002 10.999999
v -2.500000 -0.000002 11.999999
v -2.500000 -0.000002 12.999999
v -2.500000 -0.000002 13.999999
v -2.500000 0.999998 14.000000
v -2.500000 0.999998 13.000000
v -2.500000 0.999998 12.000000
v -2.500000 0.999998 11.000000
v -2.500000 0.999998 10.000000
v -2.500000 0.999999 9.000000
v -2.500000 0.999999 8.000000
v -2.500000 0.999999 7.000000
v -2.500000 0.999999 6.000000
v -2.500000 0.999999 5.000000
v -2.500000 0.999999 4.000000
v -2.500000 1.000000 3.000001
v -2.500000 1.000000 2.000001
v -2.500000 1.000000 1.000001
v -2.500000 1.000000 0.000001
v -2.500000 1.000000 -0.999999
v -2.500000 1.000000 -1.999999
v -2.500000 1.000000 -2.999999
v -2.500000 1.000001 -4.000000
v -2.500000 1.000001 -5.000000
v -2.500000 1.000001 -6.000000
v -2.500000 1.000001 -7.000000
v -2.500000 1.000001 -8.000000
v -2.500000 1.000001 -8.999999
v -2.500000 1.000002 -9.999999
v -2.500000 1.000002 -10.999999
v -2.500000 1.000002 -11.999999
v -2.500000 1.000002 -12.999999
v -2.500000 1.000002 -13.999999
v 2.500000 -0.000002 14.000000
v 2.500000 -0.000002 13.000000
v 2.500000 -0.000002 12.000000
v 2.500000 -0.000002 11.000000
v 2.500000 -0.000002 10.000000
v 2.500000 -0.000001 9.000000
v 2.500000 -0.000001 8.000000
v 2.500000 -0.000001 7.000000
v 2.500000 -0.000001 6.000000
v 2.500000 -0.000001 5.000000
v 2.500000 -0.000001 4.000000
v 2.500000 -0.000000 3.000001
v 2.500000 -0.000000 2.000001
v 2.500000 -0.000000 1.000001
v 2.500000 -0.000000 0.000001
v 2.500000 0.000000 -0.999999
v 2.500000 0.000000 -1.999999
v 2.500000 0.000000 -2.999999
v 2.500000 0.000001 -4.000000
v 2.500000 0.000001 -5.000000
v 2.500000 0.000001 -6.000000
v 2.500000 0.000001 -7.000000
v 2.500000 0.000001 -8.000000
v 2.500000 0.000001 -8.999999
v 2.500000 0.000002 -9.999999
v 2.500000 0.000002 -10.999999
v 2.500000 0.000002 -11.999999
v 2.500000 0.000002 -12.999999
v 2.500000 0.000002 -13.999999
v 2.500000 1.000002 -14.000000
v 2.500000 1.000002 -13.000000
v 2.500000 1.000002 -12.000000
v 2.500000 1.000002 -11.000000
v 2.500000 1.000002 -10.000000
v 2.500000 1.000001 -9.000000
v 2.500000 1.000001 -8.000000
v 2.500000 1.000001 -7.000000
v 2.500000 1.000001 -6.000000
v 2.500000 1.000001 -5.000000
v 2.500000 1.000001 -4.000000
v 2.500000 1.000000 -3.000001
v 2.500000 1.000000 -2.000001
v 2.500000 1.000000 -1.000001
v 2.500000 1.000000 -0.000001
v 2.500000 1.000000 0.999999
v 2.500000 1.000000 1.999999
v 2.500000 1.000000 2.999999
v 2.500000 0.999999 4.000000
v 2.500000 0.999999 5.000000
v 2.500000 0.999999 6.000000
v 2.500000 0.999999 7.000000
v 2.500000 0.999999 8.000000
v 2.500000 0.999999 8.999999
v 2.500000 0.999998 9.999999
v 2.500000 0.999998 10.999999
v 2.500000 0.999998 11.999999
v 2.500000 0.999998 12.999999
v 2.500000 0.999998 13.999999
v 1.500000 0.000002 -15.000000
v 0.500000 0.000002 -15.000000
v -0.500000 0.000002 -15.000000
v -1.500000 0.000002 -15.000000
v -1.500000 1.000003 -15.000000
v -0.500000 1.000003 -15.000000
v 0.500000 1.000003 -15.000000
v 1.500000 1.000003 -15.000000
v -1.500000 -0.000002 15.000000
v -0.500000 -0.000002 15.000000
v 0.500000 -0.000002 15.000000
v 1.500000 -0.000002 15.000000
v 1.500000 0.999998 15.000000
v 0.500000 0.999998 15.000000
v -0.500000 0.999998 15.000000
v -1.500000 0.999998 15.000000
v -1.500000 1.000002 -13.999999
v -0.500000 1.000002 -13.999999
v 0.500000 1.000002 -13.999999
v 1.500000 1.000002 -13.999999
v -1.500000 1.000002 -12.999999
v -0.500000 1.000002 -12.999999
v 0.500000 1.000002 -12.999999
v 1.500000 1.000002 -13.000000
v -1.500000 1.000002 -11.999999
v -0.500000 1.000002 -11.999999
v 0.500000 1.000002 -11.999999
v 1.500000 1.000002 -11.999999
v -1.500000 1.000002 -10.999999
v -0.500000 1.000002 -10.999999
v 0.500000 1.000002 -10.999999
v 1.500000 1.000002 -11.000000
v -1.500000 1.000002 -9.999999
v -0.500000 1.000002 -9.999999
v 0.500000 1.000002 -9.999999
v 1.500000 1.000002 -9.999999
v -1.500000 1.000001 -8.999999
v -0.500000 1.000001 -8.999999
v 0.500000 1.000001 -8.999999
v 1.500000 1.000001 -9.000000
v -1.500000 1.000001 -8.000000
v -0.500000 1.000001 -8.000000
v 0.500000 1.000001 -8.000000
v 1.500000 1.000001 -8.000000
v -1.500000 1.000001 -7.000000
v -0.500000 1.000001 -7.000000
v 0.500000 1.000001 -7.000000
v 1.500000 1.000001 -7.000000
v -1.500000 1.000001 -6.000000
v -0.500000 1.000001 -6.000000
v 0.500000 1.000001 -6.000000
v 1.500000 1.000001 -6.000000
v -1.500000 1.000001 -5.000000
v -0.500000 1.000001 -5.000000
v 0.500000 1.000001 -5.000000
v 1.500000 1.000001 -5.000000
v -1.500000 1.000001 -4.000000
v -0.500000 1.000001 -4.000000
v 0.500000 1.000001 -4.000000
v 1.500000 1.000001 -4.000000
v -1.500000 1.000000 -3.000000
v -0.500000 1.000000 -3.000000
v 0.500000 1.000000 -3.000000
v 1.500000 1.000000 -3.000000
v -1.500000 1.000000 -2.000000
v -0.500000 1.000000 -2.000000
v 0.500000 1.000000 -2.000000
v 1.500000 1.000000 -2.000000
v -1.500000 1.000000 -1.000000
v -0.500000 1.000000 -1.000000
v 0.500000 1.000000 -1.000000
v 1.500000 1.000000 -1.000000
v -1.500000 1.000000 0.000000
v -0.500000 1.000000 0.000000
v 0.500000 1.000000 0.000000
v 1.500000 1.000000 0.000000
v -1.500000 1.000000 1.000000
v -0.500000 1.000000 1.000000
v 0.500000 1.000000 1.000000
v 1.500000 1.000000 1.000000
v -1.500000 1.000000 2.000000
v -0.500000 1.000000 2.000000
v 0.500000 1.000000 2.000000
v 1.500000 1.000000 2.000000
v -1.500000 1.000000 3.000000
v -0.500000 1.000000 3.000000
v 0.500000 1.000000 3.000000
v 1.500000 1.000000 3.000000
v -1.500000 0.999999 4.000000
v -0.500000 0.999999 4.000000
v 0.500000 0.999999 4.000000
v 1.500000 0.999999 4.000000
v -1.500000 0.999999 5.000000
v -0.500000 0.999999 5.000000
v 0.500000 0.999999 5.000000
v 1.500000 0.999999 5.000000
v -1.500000 0.999999 6.000000
v -0.500000 0.999999 6.000000
v 0.500000 0.999999 6.000000
v 1.500000 0.999999 6.000000
v -1.500000 0.999999 7.000000
v -0.500000 0.999999 7.000000
v 0.500000 0.999999 7.000000
v 1.500000 0.999999 7.000000
v -1.500000 0.999999 8.000000
v -0.500000 0.999999 8.000000
v 0.500000 0.999999 8.000000
v 1.500000 0.999999 8.000000
v -1.500000 0.999999 9.000000
v -0.500000 0.999999 9.000000
v 0.500000 0.999999 9.000000
v 1.500000 0.999999 9.000000
v -1.500000 0.999998 10.000000
v -0.500000 0.999998 10.000000
v 0.500000 0.999998 10.000000
v 1.500000 0.999998 9.999999
v -1.500000 0.999998 11.000000
v -0.500000 0.999998 11.000000
v 0.500000 0.999998 11.000000
v 1.500000 0.999998 11.000000
v -1.500000 0.999998 12.000000
v 1.500000 0.999998 11.999999
v -1.500000 0.999998 13.000000
v -0.500000 0.999998 13.000000
v 0.500000 0.999998 13.000000
v 1.500000 0.999998 13.000000
v -1.500000 0.999998 14.000000
v -0.500000 0.999998 14.000000
v 0.500000 0.999998 14.000000
v 1.500000 0.999998 13.999999
v 1.500000 0.000002 -13.999999
v 0.500000 0.000002 -13.999999
v -0.500000 0.000002 -13.999999
v -1.500000 0.000002 -13.999999
v 1.500000 0.000002 -12.999999
v 0.500000 0.000002 -12.999999
v -0.500000 0.000002 -12.999999
v -1.500000 0.000002 -13.000000
v 1.500000 0.000002 -11.999999
v 0.500000 0.000002 -11.999999
v -0.500000 0.000002 -11.999999
v -1.500000 0.000002 -11.999999
v 1.500000 0.000002 -10.999999
v 0.500000 0.000002 -10.999999
v -0.500000 0.000002 -10.999999
v -1.500000 0.000002 -11.000000
v 1.500000 0.000002 -9.999999
v 0.500000 0.000002 -9.999999
v -0.500000 0.000002 -9.999999
v -1.500000 0.000002 -9.999999
v 1.500000 0.000001 -8.999999
v 0.500000 0.000001 -8.999999
v -0.500000 0.000001 -8.999999
v -1.500000 0.000001 -9.000000
v 1.500000 0.000001 -8.000000
v 0.500000 0.000001 -8.000000
v -0.500000 0.000001 -8.000000
v -1.500000 0.000001 -8.000000
v 1.500000 0.000001 -7.000000
v 0.500000 0.000001 -7.000000
v -0.500000 0.000001 -7.000000
v -1.500000 0.000001 -7.000000
v 1.500000 0.000001 -6.000000
v 0.500000 0.000001 -6.000000
v -0.500000 0.000001 -6.000000
v -1.500000 0.000001 -6.000000
v 1.500000 0.000001 -5.000000
v 0.500000 0.000001 -5.000000
v -0.500000 0.000001 -5.000000
v -1.500000 0.000001 -5.000000
v 1.500000 0.000001 -4.000000
v 0.500000 0.000001 -4.000000
v -0.500000 0.000001 -4.000000
v -1.500000 0.000001 -4.000000
v 1.500000 0.000000 -3.000000
v 0.500000 0.000000 -3.000000
v -0.500000 0.000000 -3.000000
v -1.500000 0.000000 -3.000000
v 1.500000 0.000000 -2.000000
v 0.500000 0.000000 -2.000000
v -0.500000 0.000000 -2.000000
v -1.500000 0.000000 -2.000000
v 1.500000 0.000000 -1.000000
v 0.500000 0.000000 -1.000000
v -0.500000 0.000000 -1.000000
v -1.500000 0.000000 -1.000000
v 1.500000 0.000000 0.000000
v 0.500000 0.000000 0.000000
v -0.500000 0.000000 0.000000
v -1.500000 0.000000 0.000000
v 1.500000 -0.000000 1.000000
v 0.500000 -0.000000 1.000000
v -0.500000 -0.000000 1.000000
v -1.500000 -0.000000 1.000000
v 1.500000 -0.000000 2.000000
v 0.500000 -0.000000 2.000000
v -0.500000 -0.000000 2.000000
v -1.500000 -0.000000 2.000000
v 1.500000 -0.000000 3.000000
v 0.500000 -0.000000 3.000000
v -0.500000 -0.000000 3.000000
v -1.500000 -0.000000 3.000000
v 1.500000 -0.000001 4.000000
v 0.500000 -0.000001 4.000000
v -0.500000 -0.000001 4.000000
v -1.500000 -0.000001 4.000000
v 1.500000 -0.000001 5.000000
v 0.500000 -0.000001 5.000000
v -0.500000 -0.000001 5.000000
v -1.500000 -0.000001 5.000000
v 1.500000 -0.000001 6.000000
v 0.500000 -0.000001 6.000000
v -0.500000 -0.000001 6.000000
v -1.500000 -0.000001 6.000000
v 1.500000 -0.000001 7.000000
v 0.500000 -0.000001 7.000000
v -0.500000 -0.000001 7.000000
v -1.500000 -0.000001 7.000000
v 1.500000 -0.000001 8.000000
v 0.500000 -0.000001 8.000000
v -0.500000 -0.000001 8.000000
v -1.500000 -0.000001 8.000000
v 1.500000 -0.000001 9.000000
v 0.500000 -0.000001 9.000000
v -0.500000 -0.000001 9.000000
v -1.500000 -0.000001 9.000000
v 1.500000 -0.000002 10.000000
v 0.500000 -0.000002 10.000000
v -0.500000 -0.000002 10.000000
v -1.500000 -0.000002 9.999999
v 1.500000 -0.000002 11.000000
v 0.500000 -0.000002 11.000000
v -0.500000 -0.000002 11.000000
v -1.500000 -0.000002 11.000000
v 1.500000 -0.000002 12.000000
v 0.500000 -0.000002 12.000000
v -0.500000 -0.000002 12.000000
v -1.500000 -0.000002 11.999999
v 1.500000 -0.000002 13.000000
v 0.500000 -0.000002 13.000000
v -0.500000 -0.000002 13.000000
v -1.500000 -0.000002 13.000000
v 1.500000 -0.000002 14.000000
v 0.500000 -0.000002 14.000000
v -0.500000 -0.000002 14.000000
v -1.500000 -0.000002 13.999999
v -0.500000 0.999998 12.000000
v 0.500000 0.999998 12.000000
v -0.500000 2.999998 12.000001
v 0.500000 2.999998 12.000001
v -2.500000 3.999999 9.000001
v -1.500000 3.999999 9.000001
v -0.500000 3.999999 9.000001
v 0.500000 3.999999 9.000001
v 1.500000 7.000000 4.000001
v -1.500000 7.000000 4.000001
v -0.500000 7.000000 4.000001
v 0.500000 7.000000 4.000001
v 2.500000 5.999999 6.000001
v 1.500000 5.999999 6.000001
v -2.500000 3.999999 4.000000
v -1.500000 3.999999 4.000000
v -1.500000 3.999999 5.000000
v 0.500000 8.000000 0.000001
v 1.500000 8.000000 0.000001
v -2.500000 7.000000 2.000002
v 1.500000 7.000000 2.000001
v -1.500000 7.000000 2.000001
v -0.500000 7.000000 2.000001
v 0.500000 7.000000 2.000001
v 0.500000 9.000001 -2.999999
v 1.500000 9.000001 -2.999999
v 0.500000 9.000001 -7.999999
v 1.500000 9.000001 -7.999999
v -2.500000 9.000001 -6.999999
v -1.500000 9.000001 -6.999999
v 0.500000 2.000001 -8.000000
v 0.500000 3.000001 -8.000000
v 0.500000 4.000001 -8.000000
v 0.500000 5.000001 -7.999999
v 0.500000 6.000001 -7.999999
v 0.500000 7.000001 -7.999999
v 0.500000 8.000001 -7.999999
v 1.500000 8.000001 -7.999999
v 1.500000 7.000001 -7.999999
v 1.500000 6.000001 -7.999999
v 1.500000 5.000001 -7.999999
v 1.500000 4.000001 -8.000000
v 1.500000 3.000001 -8.000000
v 1.500000 2.000001 -8.000000
v 0.500000 5.000002 -11.999998
v 0.500000 6.000002 -11.999998
v 1.500000 6.000002 -11.999998
v 1.500000 5.000002 -11.999998
v 0.500000 8.000002 -12.999998
v 1.500000 8.000002 -12.999999
v -2.500000 3.000002 -13.999998
v -2.500000 3.000002 -14.999999
v -1.500000 3.000002 -14.999999
v -1.500000 3.000002 -13.999998
v -1.500000 1.999999 9.000000
v -1.500000 2.999999 9.000001
v 0.500000 1.999999 9.000000
v 0.500000 2.999999 9.000001
v -0.500000 1.999999 9.000000
v -0.500000 2.999999 9.000001
v -2.500000 1.999999 9.000000
v -2.500000 2.999999 9.000001
v -2.500000 1.999999 5.000000
v -1.500000 1.999999 5.000000
v -2.500000 2.999999 5.000000
v -1.500000 2.999999 5.000000
v -2.500000 3.999999 5.000000
v -2.500000 5.000000 4.000001
v -1.500000 5.000000 4.000001
v -1.500000 4.999999 5.000001
v -1.500000 6.000001 -4.999999
v -0.500000 6.000001 -4.999999
v -0.500000 6.000000 -3.999999
v -0.500000 7.000001 -4.999999
v 0.500000 6.000001 -4.999999
v 0.500000 6.000000 -3.999999
v 0.500000 7.000001 -4.999999
v 1.500000 6.000001 -4.999999
v 1.500000 6.000000 -3.999999
v 1.500000 7.000001 -4.999999
v -1.500000 6.000001 -5.999999
v -0.500000 6.000001 -5.999999
v -1.500000 7.000001 -5.999999
v -0.500000 7.000001 -5.999999
v 0.500000 6.000000 -2.999999
v 0.500000 7.000000 -2.999999
v 1.500000 6.000000 -2.999999
v 1.500000 7.000000 -2.999999
vn -0.0000 -1.0000 -0.0000
vn -0.0000 -0.0000 -1.0000
vn -0.0000 -0.0000 1.0000
vn -1.0000 -0.0000 -0.0000
vn -0.0000 1.0000 -0.0000
vn 1.0000 -0.0000 -0.0000
vn -0.0000 -0.7071 -0.7071
vt 0.125000 0.750000
vt 0.375000 0.000000
vt 0.375000 1.000000
vt 0.875000 0.750000
vt 0.625000 1.000000
vt 0.625000 0.000000
vt 0.375000 0.250000
vt 0.125000 0.500000
vt 0.625000 0.250000
vt 0.375000 0.750000
vt 0.625000 0.750000
vt 0.375000 0.500000
vt 0.625000 0.500000
vt 0.375000 0.241667
vt 0.125000 0.508333
vt 0.375000 0.233333
vt 0.125000 0.516667
vt 0.375000 0.225000
vt 0.125000 0.525000
vt 0.375000 0.216667
vt 0.125000 0.533333
vt 0.375000 0.208333
vt 0.125000 0.541667
vt 0.375000 0.200000
vt 0.125000 0.550000
vt 0.375000 0.191667
vt 0.125000 0.558333
vt 0.375000 0.183333
vt 0.125000 0.566667
vt 0.375000 0.175000
vt 0.125000 0.575000
vt 0.125000 0.583333
vt 0.375000 0.166667
vt 0.125000 0.591667
vt 0.375000 0.158333
vt 0.375000 0.150000
vt 0.125000 0.600000
vt 0.375000 0.141667
vt 0.125000 0.608333
vt 0.125000 0.616667
vt 0.375000 0.133333
vt 0.375000 0.125000
vt 0.125000 0.625000
vt 0.375000 0.116667
vt 0.125000 0.633333
vt 0.375000 0.108333
vt 0.125000 0.641667
vt 0.375000 0.100000
vt 0.125000 0.650000
vt 0.375000 0.091667
vt 0.125000 0.658333
vt 0.375000 0.083333
vt 0.125000 0.666667
vt 0.125000 0.675000
vt 0.375000 0.075000
vt 0.125000 0.683333
vt 0.375000 0.066667
vt 0.375000 0.058333
vt 0.125000 0.691667
vt 0.125000 0.700000
vt 0.375000 0.050000
vt 0.125000 0.708333
vt 0.375000 0.041667
vt 0.125000 0.716667
vt 0.375000 0.033333
vt 0.125000 0.725000
vt 0.375000 0.025000
vt 0.375000 0.016667
vt 0.125000 0.733333
vt 0.125000 0.741667
vt 0.375000 0.008333
vt 0.625000 0.008333
vt 0.875000 0.741667
vt 0.625000 0.016667
vt 0.875000 0.733333
vt 0.625000 0.025000
vt 0.875000 0.725000
vt 0.875000 0.716667
vt 0.625000 0.033333
vt 0.625000 0.041667
vt 0.875000 0.708333
vt 0.875000 0.700000
vt 0.625000 0.050000
vt 0.625000 0.058333
vt 0.875000 0.691666
vt 0.875000 0.683333
vt 0.625000 0.066667
vt 0.625000 0.075000
vt 0.875000 0.675000
vt 0.625000 0.083333
vt 0.875000 0.666667
vt 0.625000 0.091667
vt 0.875000 0.658333
vt 0.625000 0.100000
vt 0.875000 0.650000
vt 0.875000 0.641667
vt 0.625000 0.108333
vt 0.875000 0.633333
vt 0.625000 0.116667
vt 0.625000 0.125000
vt 0.875000 0.625000
vt 0.625000 0.133333
vt 0.875000 0.616667
vt 0.625000 0.141667
vt 0.875000 0.608333
vt 0.625000 0.150000
vt 0.875000 0.600000
vt 0.625000 0.158333
vt 0.875000 0.591667
vt 0.625000 0.166667
vt 0.875000 0.583333
vt 0.625000 0.175000
vt 0.875000 0.575000
vt 0.875000 0.566667
vt 0.625000 0.183333
vt 0.625000 0.191667
vt 0.875000 0.558333
vt 0.625000 0.200000
vt 0.875000 0.550000
vt 0.625000 0.208333
vt 0.875000 0.541667
vt 0.625000 0.216667
vt 0.875000 0.533333
vt 0.625000 0.225000
vt 0.875000 0.525000
vt 0.875000 0.516667
vt 0.625000 0.233333
vt 0.625000 0.241667
vt 0.875000 0.508333
vt 0.375000 0.741667
vt 0.375000 0.733333
vt 0.375000 0.725000
vt 0.375000 0.716667
vt 0.375000 0.708333
vt 0.375000 0.700000
vt 0.375000 0.691666
vt 0.375000 0.683333
vt 0.375000 0.675000
vt 0.375000 0.666667
vt 0.375000 0.658333
vt 0.375000 0.650000
vt 0.375000 0.641667
vt 0.375000 0.633333
vt 0.375000 0.625000
vt 0.375000 0.616667
vt 0.375000 0.608333
vt 0.375000 0.600000
vt 0.375000 0.591667
vt 0.375000 0.583333
vt 0.375000 0.575000
vt 0.375000 0.566667
vt 0.375000 0.558333
vt 0.375000 0.550000
vt 0.375000 0.541667
vt 0.375000 0.533333
vt 0.375000 0.525000
vt 0.375000 0.516667
vt 0.375000 0.508333
vt 0.625000 0.508333
vt 0.625000 0.516667
vt 0.625000 0.525000
vt 0.625000 0.533333
vt 0.625000 0.541667
vt 0.625000 0.550000
vt 0.625000 0.558333
vt 0.625000 0.566667
vt 0.625000 0.575000
vt 0.625000 0.583333
vt 0.625000 0.591667
vt 0.625000 0.600000
vt 0.625000 0.608333
vt 0.625000 0.616667
vt 0.625000 0.625000
vt 0.625000 0.633333
vt 0.625000 0.641667
vt 0.625000 0.650000
vt 0.625000 0.658333
vt 0.625000 0.666667
vt 0.625000 0.675000
vt 0.625000 0.683333
vt 0.625000 0.691667
vt 0.625000 0.700000
vt 0.625000 0.708333
vt 0.625000 0.716667
vt 0.625000 0.725000
vt 0.625000 0.733333
vt 0.625000 0.741667
vt 0.375000 0.450000
vt 0.325000 0.500000
vt 0.375000 0.400000
vt 0.275000 0.500000
vt 0.375000 0.350000
vt 0.225000 0.500000
vt 0.375000 0.300000
vt 0.175000 0.500000
vt 0.625000 0.300000
vt 0.825000 0.500000
vt 0.625000 0.350000
vt 0.775000 0.500000
vt 0.625000 0.400000
vt 0.725000 0.500000
vt 0.625000 0.450000
vt 0.675000 0.500000
vt 0.175000 0.750000
vt 0.375000 0.950000
vt 0.225000 0.750000
vt 0.375000 0.900000
vt 0.375000 0.850000
vt 0.275000 0.750000
vt 0.375000 0.800000
vt 0.325000 0.750000
vt 0.625000 0.800000
vt 0.675000 0.750000
vt 0.625000 0.850000
vt 0.725000 0.750000
vt 0.625000 0.900000
vt 0.775000 0.750000
vt 0.825000 0.750000
vt 0.625000 0.950000
vt 0.825000 0.508333
vt 0.775000 0.508333
vt 0.725000 0.508333
vt 0.675000 0.508333
vt 0.825000 0.516667
vt 0.775000 0.516667
vt 0.725000 0.516667
vt 0.675000 0.516667
vt 0.825000 0.525000
vt 0.775000 0.525000
vt 0.725000 0.525000
vt 0.675000 0.525000
vt 0.825000 0.533333
vt 0.775000 0.533333
vt 0.725000 0.533333
vt 0.675000 0.533333
vt 0.825000 0.541667
vt 0.775000 0.541667
vt 0.725000 0.541667
vt 0.675000 0.541667
vt 0.825000 0.550000
vt 0.775000 0.550000
vt 0.725000 0.550000
vt 0.675000 0.550000
vt 0.825000 0.558333
vt 0.775000 0.558333
vt 0.725000 0.558333
vt 0.675000 0.558333
vt 0.825000 0.566667
vt 0.775000 0.566667
vt 0.725000 0.566667
vt 0.675000 0.566667
vt 0.825000 0.575000
vt 0.775000 0.575000
vt 0.725000 0.575000
vt 0.675000 0.575000
vt 0.825000 0.583333
vt 0.775000 0.583333
vt 0.725000 0.583333
vt 0.675000 0.583333
vt 0.825000 0.591667
vt 0.775000 0.591667
vt 0.725000 0.591667
vt 0.675000 0.591667
vt 0.825000 0.600000
vt 0.775000 0.600000
vt 0.725000 0.600000
vt 0.675000 0.600000
vt 0.825000 0.608333
vt 0.775000 0.608333
vt 0.725000 0.608333
vt 0.675000 0.608333
vt 0.825000 0.616667
vt 0.775000 0.616667
vt 0.725000 0.616667
vt 0.675000 0.616667
vt 0.825000 0.625000
vt 0.775000 0.625000
vt 0.725000 0.625000
vt 0.675000 0.625000
vt 0.825000 0.633333
vt 0.775000 0.633333
vt 0.725000 0.633333
vt 0.675000 0.633333
vt 0.825000 0.641667
vt 0.775000 0.641667
vt 0.725000 0.641667
vt 0.675000 0.641667
vt 0.825000 0.650000
vt 0.775000 0.650000
vt 0.725000 0.650000
vt 0.675000 0.650000
vt 0.825000 0.658333
vt 0.775000 0.658333
vt 0.725000 0.658333
vt 0.675000 0.658333
vt 0.825000 0.666667
vt 0.775000 0.666667
vt 0.725000 0.666667
vt 0.675000 0.666667
vt 0.825000 0.675000
vt 0.775000 0.675000
vt 0.725000 0.675000
vt 0.675000 0.675000
vt 0.825000 0.683333
vt 0.775000 0.683333
vt 0.725000 0.683333
vt 0.675000 0.683333
vt 0.825000 0.691667
vt 0.775000 0.691667
vt 0.725000 0.691667
vt 0.675000 0.691667
vt 0.825000 0.700000
vt 0.775000 0.700000
vt 0.725000 0.700000
vt 0.675000 0.700000
vt 0.825000 0.708333
vt 0.775000 0.708333
vt 0.725000 0.708333
vt 0.675000 0.708333
vt 0.825000 0.716667
vt 0.775000 0.716667
vt 0.725000 0.716667
vt 0.675000 0.716667
vt 0.825000 0.725000
vt 0.675000 0.725000
vt 0.825000 0.733333
vt 0.775000 0.733333
vt 0.725000 0.733333
vt 0.675000 0.733333
vt 0.825000 0.741667
vt 0.775000 0.741667
vt 0.725000 0.741667
vt 0.675000 0.741667
vt 0.325000 0.508333
vt 0.275000 0.508333
vt 0.225000 0.508333
vt 0.175000 0.508333
vt 0.325000 0.516667
vt 0.275000 0.516667
vt 0.225000 0.516667
vt 0.175000 0.516667
vt 0.325000 0.525000
vt 0.275000 0.525000
vt 0.225000 0.525000
vt 0.175000 0.525000
vt 0.325000 0.533333
vt 0.275000 0.533333
vt 0.225000 0.533333
vt 0.175000 0.533333
vt 0.325000 0.541667
vt 0.275000 0.541667
vt 0.225000 0.541667
vt 0.175000 0.541667
vt 0.325000 0.550000
vt 0.275000 0.550000
vt 0.225000 0.550000
vt 0.175000 0.550000
vt 0.325000 0.558333
vt 0.275000 0.558333
vt 0.225000 0.558333
vt 0.175000 0.558333
vt 0.325000 0.566667
vt 0.275000 0.566667
vt 0.225000 0.566667
vt 0.175000 0.566667
vt 0.325000 0.575000
vt 0.275000 0.575000
vt 0.225000 0.575000
vt 0.175000 0.575000
vt 0.325000 0.583333
vt 0.275000 0.583333
vt 0.225000 0.583333
vt 0.175000 0.583333
vt 0.325000 0.591667
vt 0.275000 0.591667
vt 0.225000 0.591667
vt 0.175000 0.591667
vt 0.325000 0.600000
vt 0.275000 0.600000
vt 0.225000 0.600000
vt 0.175000 0.600000
vt 0.325000 0.608333
vt 0.275000 0.608333
vt 0.225000 0.608333
vt 0.175000 0.608333
vt 0.325000 0.616667
vt 0.275000 0.616667
vt 0.225000 0.616667
vt 0.175000 0.616667
vt 0.325000 0.625000
vt 0.275000 0.625000
vt 0.225000 0.625000
vt 0.175000 0.625000
vt 0.325000 0.633333
vt 0.275000 0.633333
vt 0.225000 0.633333
vt 0.175000 0.633333
vt 0.325000 0.641667
vt 0.275000 0.641667
vt 0.225000 0.641667
vt 0.175000 0.641667
vt 0.325000 0.650000
vt 0.275000 0.650000
vt 0.225000 0.650000
vt 0.175000 0.650000
vt 0.325000 0.658333
vt 0.275000 0.658333
vt 0.225000 0.658333
vt 0.175000 0.658333
vt 0.325000 0.666667
vt 0.275000 0.666667
vt 0.225000 0.666667
vt 0.175000 0.666667
vt 0.325000 0.675000
vt 0.275000 0.675000
vt 0.225000 0.675000
vt 0.175000 0.675000
vt 0.325000 0.683333
vt 0.275000 0.683333
vt 0.225000 0.683333
vt 0.175000 0.683333
vt 0.325000 0.691667
vt 0.275000 0.691667
vt 0.225000 0.691667
vt 0.175000 0.691667
vt 0.325000 0.700000
vt 0.275000 0.700000
vt 0.225000 0.700000
vt 0.175000 0.700000
vt 0.325000 0.708333
vt 0.275000 0.708333
vt 0.225000 0.708333
vt 0.175000 0.708333
vt 0.325000 0.716667
vt 0.275000 0.716667
vt 0.225000 0.716667
vt 0.175000 0.716667
vt 0.325000 0.725000
vt 0.275000 0.725000
vt 0.225000 0.725000
vt 0.175000 0.725000
vt 0.325000 0.733333
vt 0.275000 0.733333
vt 0.225000 0.733333
vt 0.175000 0.733333
vt 0.325000 0.741667
vt 0.275000 0.741667
vt 0.225000 0.741667
vt 0.175000 0.741667
vt 0.775000 0.725000
vt 0.725000 0.725000
vt 0.775000 0.725000
vt 0.725000 0.725000
vt 0.875000 0.700000
vt 0.825000 0.700000
vt 0.775000 0.700000
vt 0.725000 0.700000
vt 0.675000 0.658333
vt 0.825000 0.658333
vt 0.775000 0.658333
vt 0.725000 0.658333
vt 0.625000 0.675000
vt 0.675000 0.675000
vt 0.875000 0.658333
vt 0.825000 0.658333
vt 0.825000 0.666667
vt 0.725000 0.625000
vt 0.675000 0.625000
vt 0.875000 0.641667
vt 0.675000 0.641667
vt 0.825000 0.641667
vt 0.775000 0.641667
vt 0.725000 0.641667
vt 0.725000 0.600000
vt 0.675000 0.600000
vt 0.725000 0.558333
vt 0.675000 0.558333
vt 0.875000 0.566667
vt 0.825000 0.566667
vt 0.725000 0.558333
vt 0.725000 0.558333
vt 0.725000 0.558333
vt 0.725000 0.558333
vt 0.725000 0.558333
vt 0.725000 0.558333
vt 0.725000 0.558333
vt 0.675000 0.558333
vt 0.675000 0.558333
vt 0.675000 0.558333
vt 0.675000 0.558333
vt 0.675000 0.558333
vt 0.675000 0.558333
vt 0.675000 0.558333
vt 0.725000 0.558333
vt 0.725000 0.558333
vt 0.675000 0.558333
vt 0.675000 0.558333
vt 0.725000 0.516667
vt 0.675000 0.516667
vt 0.875000 0.508333
vt 0.875000 0.500000
vt 0.825000 0.500000
vt 0.825000 0.508333
vt 0.825000 0.700000
vt 0.825000 0.700000
vt 0.725000 0.700000
vt 0.725000 0.700000
vt 0.775000 0.700000
vt 0.775000 0.700000
vt 0.875000 0.700000
vt 0.875000 0.700000
vt 0.875000 0.666667
vt 0.825000 0.666667
vt 0.875000 0.666667
vt 0.825000 0.666667
vt 0.875000 0.666667
vt 0.875000 0.658333
vt 0.825000 0.658333
vt 0.825000 0.666667
vt 0.000000 0.000000
vt 0.000000 0.000000
vt 0.000000 0.000000
vt 0.000000 0.000000
vt 0.000000 0.000000
vt 0.000000 0.000000
vt 0.000000 0.000000
vt 0.000000 0.000000
vt 0.000000 0.000000
vt 0.000000 0.000000
vt 0.000000 0.000000
vt 0.000000 0.000000
vt 0.000000 0.000000
vt 0.000000 0.000000
vt 0.775000 0.591667
vt 0.000000 0.000000
vt 0.775000 0.591667
vt 0.775000 0.591667
vt 0.000000 0.000000
vt 0.775000 0.591667
s 1
g off
g SAFEGROUND_BASE.001_SAFEGROUND
usemtl SAFEGROUND
f 673/755/6 668/750/6 672/754/6
f 582/664/6 413/479/6 412/478/6
f 353/386/6 673/755/6 677/759/6
s 0
f 711/793/7 369/418/7 709/791/7
s 1
f 453/528/6 687/769/6 454/531/6
s 0
f 455/532/8 325/333/8 456/534/8
s 1
f 663/745/6 658/740/6 662/744/6
s 0
f 349/379/9 363/406/9 364/409/9
s 1
f 488/570/10 379/439/10 378/436/10
s 0
f 336/353/6 605/687/6 609/691/6
f 346/372/9 366/412/9 367/414/9
f 731/813/7 721/803/7 722/804/7
f 717/799/7 726/808/7 716/798/7
s 1
f 609/691/6 604/686/6 608/690/6
f 330/341/6 581/663/6 585/667/6
s 0
f 361/402/9 353/387/9 360/401/9
f 626/708/6 402/468/6 401/467/6
f 630/712/6 401/467/6 400/466/6
f 429/495/10 515/597/10 519/601/10
f 359/398/9 355/390/9 358/396/9
s 1
f 587/669/6 582/664/6 586/668/6
s 0
f 487/569/10 482/564/10 486/568/10
f 732/814/7 720/802/7 721/803/7
f 454/530/8 456/534/8 457/536/8
f 702/784/7 543/625/7 703/785/7
f 554/636/10 549/631/10 553/635/10
s 1
f 674/756/6 390/456/6 389/455/6
s 0
f 347/374/9 365/410/9 366/412/9
s 1
f 567/649/10 564/646/10 566/648/10
s 0
f 406/472/11 422/488/11 423/489/11
f 650/732/6 396/462/6 395/461/6
f 613/695/6 608/690/6 612/694/6
f 728/810/7 724/806/7 725/807/7
s 1
f 580/662/6 575/657/6 579/661/6
f 610/692/6 406/472/6 405/471/6
f 320/323/6 689/771/6 452/526/6
f 325/333/10 573/655/10 456/535/10
s 0
f 643/725/6 638/720/6 642/724/6
s 1
f 497/579/10 492/574/10 496/578/10
f 588/670/6 583/665/6 587/669/6
s 0
f 719/801/7 378/436/7 718/800/7
s 1
f 415/481/10 451/525/10 463/545/10
s 0
f 642/724/6 398/464/6 397/463/6
f 433/499/11 397/463/11 432/498/11
f 428/494/11 402/468/11 427/493/11
f 368/416/9 346/372/9 367/414/9
f 524/606/10 370/420/10 369/418/10
f 383/446/9 331/342/9 382/444/9
f 532/614/10 368/417/10 367/415/10
f 607/689/6 602/684/6 606/688/6
s 1
f 687/769/6 682/764/6 686/768/6
s 0
f 526/608/10 521/603/10 525/607/10
s 1
f 671/753/6 666/748/6 670/752/6
s 0
f 615/697/6 610/692/6 614/696/6
f 653/735/6 648/730/6 652/734/6
f 555/637/10 550/632/10 554/636/10
s 1
f 624/706/6 619/701/6 623/705/6
f 542/624/10 537/619/10 541/623/10
s 0
f 748/830/7 552/634/7 744/826/7
s 1
f 677/759/6 672/754/6 676/758/6
s 0
f 358/396/9 356/393/9 357/394/9
f 382/444/9 332/344/9 381/442/9
f 427/493/10 507/589/10 511/593/10
f 622/704/6 403/469/6 402/468/6
f 638/720/6 399/465/6 398/464/6
s 1
f 417/483/10 467/549/10 471/553/10
f 572/654/10 567/649/10 571/653/10
f 477/559/10 472/554/10 476/558/10
s 0
f 407/473/11 421/487/11 422/488/11
s 1
f 678/760/6 389/455/6 388/454/6
s 0
f 342/365/6 629/711/6 633/715/6
f 374/428/9 340/360/9 373/426/9
f 432/498/11 398/464/11 431/497/11
f 371/422/9 343/366/9 370/421/9
f 369/419/9 345/370/9 368/416/9
f 370/421/9 344/368/9 369/419/9
f 375/430/9 339/358/9 374/428/9
s 1
f 690/772/10 560/642/10 564/646/10
f 660/742/6 655/737/6 659/741/6
s 0
f 658/740/6 394/460/6 393/459/6
f 700/782/7 532/614/7 699/781/7
f 438/504/10 551/633/10 555/637/10
f 381/442/9 333/346/9 380/440/9
f 345/371/6 641/723/6 645/727/6
f 520/602/10 371/423/10 370/420/10
f 341/362/6 625/707/6 629/711/6
f 417/483/11 413/479/11 416/482/11
s 1
f 356/392/6 685/767/6 689/771/6
s 0
f 442/508/11 388/454/11 441/507/11
f 419/485/11 411/477/11 418/484/11
f 439/505/11 391/457/11 438/504/11
f 443/509/11 387/453/11 442/508/11
s 1
f 346/373/6 645/727/6 649/731/6
s 0
f 713/795/7 525/607/7 712/794/7
f 493/575/10 488/570/10 492/574/10
s 1
f 574/656/6 326/334/6 414/480/6
f 562/644/10 557/639/10 561/643/10
s 0
f 431/497/10 523/605/10 527/609/10
f 429/495/11 401/467/11 428/494/11
f 427/493/11 403/469/11 426/492/11
f 372/424/9 342/364/9 371/422/9
f 430/496/11 400/466/11 429/495/11
f 431/497/11 399/465/11 430/496/11
f 373/426/9 341/363/9 372/424/9
f 343/367/6 633/715/6 637/719/6
f 648/730/6 643/725/6 647/729/6
s 1
f 564/646/10 360/400/10 359/399/10
f 576/658/6 445/513/6 575/657/6
f 503/585/10 498/580/10 502/584/10
f 418/484/10 471/553/10 475/557/10
s 0
f 440/506/11 390/456/11 439/505/11
f 441/507/11 389/455/11 440/506/11
f 418/484/11 412/478/11 417/483/11
f 428/494/10 511/593/10 515/597/10
f 420/486/11 410/476/11 419/485/11
s 1
f 565/647/10 562/644/10 691/773/10
f 443/509/10 569/651/10 573/655/10
s 0
f 445/512/7 449/520/7 450/522/7
f 661/743/6 656/738/6 660/742/6
s 1
f 440/506/10 559/641/10 563/645/10
f 467/549/10 462/544/10 466/548/10
f 551/633/10 546/628/10 550/632/10
s 0
f 446/514/7 448/518/7 449/520/7
s 1
f 685/767/6 680/762/6 684/766/6
f 456/535/10 572/654/10 457/537/10
s 0
f 335/350/9 377/434/9 378/437/9
s 1
f 473/555/10 468/550/10 472/554/10
f 585/667/6 580/662/6 584/666/6
f 339/359/6 617/699/6 621/703/6
s 0
f 670/752/6 391/457/6 390/456/6
s 1
f 586/668/6 412/478/6 411/477/6
f 426/492/10 503/585/10 507/589/10
f 354/388/6 677/759/6 681/763/6
f 366/413/12 540/622/6 365/411/6
s 0
f 710/792/7 526/608/7 713/795/7
f 534/616/10 529/611/10 533/615/10
s 1
f 659/741/6 654/736/6 658/740/6
s 0
f 640/722/6 635/717/6 639/721/6
f 669/751/6 664/746/6 668/750/6
f 733/815/7 486/568/7 720/802/7
f 715/797/7 506/588/7 714/796/7
s 1
f 676/758/6 671/753/6 675/757/6
s 0
f 481/563/10 476/558/10 480/562/10
f 507/589/10 502/584/10 506/588/10
f 494/576/10 489/571/10 493/575/10
f 514/596/10 509/591/10 513/595/10
s 1
f 435/501/10 539/621/10 543/625/10
f 348/376/6 653/735/6 657/739/6
f 578/660/6 414/480/6 413/479/6
s 0
f 535/617/10 530/612/10 534/616/10
f 527/609/10 522/604/10 526/608/10
f 394/460/11 434/500/11 435/501/11
f 641/723/6 636/718/6 640/722/6
f 380/440/9 334/348/9 379/438/9
s 1
f 657/739/6 652/734/6 656/738/6
f 632/714/6 627/709/6 631/713/6
f 462/544/10 449/521/10 461/543/10
s 0
f 347/375/6 649/731/6 653/735/6
f 517/599/10 512/594/10 516/598/10
f 541/623/10 536/618/10 540/622/10
f 634/716/6 400/466/6 399/465/6
s 1
f 549/631/10 544/626/10 548/630/10
s 0
f 631/713/6 626/708/6 630/712/6
f 649/731/6 644/726/6 648/730/6
f 430/496/10 519/601/10 523/605/10
f 644/726/6 639/721/6 643/725/6
f 336/352/9 376/432/9 377/434/9
s 1
f 474/556/10 469/551/10 473/555/10
s 0
f 512/594/10 373/427/10 372/425/10
f 598/680/6 409/475/6 408/474/6
s 1
f 518/600/10 513/595/10 517/599/10
s 0
f 594/676/6 410/476/6 409/475/6
f 340/361/6 621/703/6 625/707/6
s 1
f 683/765/6 678/760/6 682/764/6
s 0
f 334/348/9 378/437/9 379/438/9
f 668/750/6 663/745/6 667/749/6
f 385/450/9 329/338/9 384/449/9
f 620/702/6 615/697/6 619/701/6
f 338/356/6 613/695/6 617/699/6
s 1
f 600/682/6 595/677/6 599/681/6
f 452/526/6 688/770/6 453/528/6
f 680/762/6 675/757/6 679/761/6
f 743/825/10 741/823/10 740/822/10
s 0
f 452/527/8 458/538/8 459/541/8
s 1
f 459/540/10 357/395/10 321/326/10
s 0
f 423/489/10 491/573/10 495/577/10
f 739/821/7 466/548/7 738/820/7
f 547/629/10 542/624/10 546/628/10
s 1
f 510/592/10 505/587/10 509/591/10
s 0
f 737/819/6 723/805/6 734/816/6
f 625/707/6 620/702/6 624/706/6
s 1
f 612/694/6 607/689/6 611/693/6
s 0
f 614/696/6 405/471/6 404/470/6
s 1
f 591/673/6 586/668/6 590/672/6
f 478/560/10 473/555/10 477/559/10
f 571/653/10 566/648/10 570/652/10
s 0
f 480/562/10 381/443/10 380/441/10
s 1
f 335/351/6 601/683/6 605/687/6
f 472/554/10 383/447/10 382/445/10
f 483/565/10 478/560/10 482/564/10
f 468/550/10 384/448/10 383/447/10
s 0
f 645/727/6 640/722/6 644/726/6
f 363/406/9 351/383/9 362/405/9
f 322/329/9 385/450/9 323/331/9
f 712/794/7 524/606/7 711/793/7
f 352/384/6 669/751/6 673/755/6
s 1
f 442/508/10 565/647/10 569/651/10
f 461/543/10 448/519/10 460/542/10
f 498/580/10 493/575/10 497/579/10
s 0
f 416/482/11 414/480/11 415/481/11
s 1
f 419/485/10 475/557/10 479/561/10
s 0
f 730/812/7 722/804/7 723/805/7
f 405/471/11 423/489/11 424/490/11
s 1
f 569/651/10 691/773/10 568/650/10
s 0
f 646/728/6 397/463/6 396/462/6
f 444/510/7 450/522/7 451/524/7
f 704/786/6 706/788/6 756/838/6
s 1
f 581/663/6 576/658/6 580/662/6
s 0
f 439/505/10 555/637/10 559/641/10
f 706/788/11 532/614/11 705/787/11
f 705/787/7 367/415/7 704/786/7
f 421/487/11 409/475/11 420/486/11
f 447/516/7 323/331/7 448/518/7
f 647/729/6 642/724/6 646/728/6
f 326/334/7 451/524/7 327/335/7
s 1
f 355/391/6 681/763/6 685/767/6
s 0
f 414/480/11 327/335/11 415/481/11
f 484/566/10 380/441/10 379/439/10
s 1
f 328/337/6 447/517/6 577/659/6
f 559/641/10 554/636/10 558/640/10
f 579/661/6 574/656/6 578/660/6
f 593/675/6 588/670/6 592/674/6
f 589/671/6 584/666/6 588/670/6
f 590/672/6 411/477/6 410/476/6
f 570/652/10 358/397/10 357/395/10
f 573/655/10 568/650/10 572/654/10
s 0
f 356/393/9 321/328/9 357/394/9
f 553/635/10 548/630/10 552/634/10
s 1
f 689/771/6 684/766/6 688/770/6
f 681/763/6 676/758/6 680/762/6
f 636/718/6 631/713/6 635/717/6
s 0
f 351/382/6 665/747/6 669/751/6
f 395/461/11 433/499/11 434/500/11
s 1
f 545/627/10 540/622/10 544/626/10
f 691/773/10 561/643/10 690/772/10
s 0
f 324/332/11 443/509/11 325/333/11
f 746/828/7 553/635/7 748/830/7
s 1
f 437/503/10 547/629/10 551/633/10
f 548/630/10 364/408/10 363/407/10
f 688/770/6 683/765/6 687/769/6
f 543/625/10 538/620/10 542/624/10
f 682/764/6 388/454/6 387/453/6
f 665/747/6 660/742/6 664/746/6
f 583/665/6 578/660/6 582/664/6
f 575/657/6 444/511/6 574/656/6
s 0
f 601/683/6 596/678/6 600/682/6
s 1
f 662/744/6 393/459/6 392/458/6
s 0
f 453/529/8 457/536/8 458/538/8
f 519/601/10 514/596/10 518/600/10
s 1
f 485/567/10 480/562/10 484/566/10
s 0
f 426/492/11 404/470/11 425/491/11
s 1
f 463/545/10 450/523/10 462/544/10
f 664/746/6 659/741/6 663/745/6
s 0
f 666/748/6 392/458/6 391/457/6
f 516/598/10 372/425/10 371/423/10
f 513/595/10 508/590/10 512/594/10
f 349/378/6 657/739/6 661/743/6
f 525/607/10 520/602/10 524/606/10
f 344/369/6 637/719/6 641/723/6
s 1
f 651/733/6 646/728/6 650/732/6
s 0
f 509/591/10 504/586/10 508/590/10
f 655/737/6 650/732/6 654/736/6
f 508/590/10 374/429/10 373/427/10
f 635/717/6 630/712/6 634/716/6
s 1
f 522/604/10 517/599/10 521/603/10
f 602/684/6 408/474/6 407/473/6
s 0
f 384/449/9 330/340/9 383/446/9
s 1
f 465/547/10 460/542/10 464/546/10
s 0
f 420/486/10 479/561/10 483/565/10
s 1
f 455/533/6 386/452/6 324/332/6
s 0
f 623/705/6 618/700/6 622/704/6
f 393/459/11 435/501/11 436/502/11
f 425/491/10 499/581/10 503/585/10
s 1
f 490/572/10 485/567/10 489/571/10
s 0
f 633/715/6 628/710/6 632/714/6
f 515/597/10 510/592/10 514/596/10
f 421/487/10 483/565/10 487/569/10
s 1
f 482/564/10 477/559/10 481/563/10
s 0
f 628/710/6 623/705/6 627/709/6
s 1
f 350/381/6 661/743/6 665/747/6
f 337/354/6 609/691/6 613/695/6
f 496/578/10 377/435/10 376/433/10
f 489/571/10 484/566/10 488/570/10
f 441/507/10 563/645/10 565/647/10
f 466/548/10 461/543/10 465/547/10
f 422/488/10 487/569/10 491/573/10
f 479/561/10 474/556/10 478/560/10
f 475/557/10 470/552/10 474/556/10
s 0
f 337/355/9 375/430/9 376/432/9
f 404/470/11 424/490/11 425/491/11
s 1
f 416/482/10 463/545/10 467/549/10
s 0
f 438/504/11 392/458/11 437/503/11
s 1
f 611/693/6 606/688/6 610/692/6
f 458/539/10 570/652/10 459/540/10
s 0
f 618/700/6 404/470/6 403/469/6
f 504/586/10 375/431/10 374/429/10
f 500/582/10 376/433/10 375/431/10
s 1
f 561/643/10 556/638/10 560/642/10
f 329/339/6 577/659/6 581/663/6
f 599/681/6 594/676/6 598/680/6
f 596/678/6 591/673/6 595/677/6
f 331/343/6 585/667/6 589/671/6
f 433/499/10 531/613/10 535/617/10
s 0
f 506/588/10 501/583/10 505/587/10
f 521/603/10 516/598/10 520/602/10
s 1
f 563/645/10 558/640/10 562/644/10
s 0
f 672/754/6 667/749/6 671/753/6
s 1
f 656/738/6 651/733/6 655/737/6
s 0
f 334/349/6 597/679/6 601/683/6
f 499/581/10 494/576/10 498/580/10
s 1
f 332/345/6 589/671/6 593/675/6
f 654/736/6 395/461/6 394/460/6
f 592/674/6 587/669/6 591/673/6
f 597/679/6 592/674/6 596/678/6
f 560/642/10 361/403/10 360/400/10
s 0
f 533/615/10 528/610/10 532/614/10
f 606/688/6 407/473/6 406/472/6
s 1
f 550/632/10 545/627/10 549/631/10
s 0
f 544/626/10 365/411/10 364/408/10
f 627/709/6 622/704/6 626/708/6
s 1
f 584/666/6 579/661/6 583/665/6
s 0
f 502/584/10 497/579/10 501/583/10
f 667/749/6 662/744/6 666/748/6
f 708/790/7 518/600/7 707/789/7
f 744/826/7 362/404/7 750/832/7
s 1
f 457/537/10 571/653/10 458/539/10
f 686/768/6 387/453/6 386/452/6
f 684/766/6 679/761/6 683/765/6
f 566/648/10 359/399/10 358/397/10
f 546/628/10 541/623/10 545/627/10
f 605/687/6 600/682/6 604/686/6
f 675/757/6 670/752/6 674/756/6
s 0
f 619/701/6 614/696/6 618/700/6
s 1
f 679/761/6 674/756/6 678/760/6
s 0
f 698/780/7 534/616/7 701/783/7
f 392/458/11 436/502/11 437/503/11
f 652/734/6 647/729/6 651/733/6
s 1
f 454/531/6 686/768/6 455/533/6
s 0
f 505/587/10 500/582/10 504/586/10
f 320/325/8 459/541/8 321/327/8
s 1
f 486/568/10 481/563/10 485/567/10
s 0
f 362/405/9 352/385/9 361/402/9
f 360/401/9 354/389/9 359/398/9
f 637/719/6 632/714/6 636/718/6
f 693/775/7 690/772/7 692/774/7
s 1
f 617/699/6 612/694/6 616/698/6
s 0
f 595/677/6 590/672/6 594/676/6
s 1
f 464/546/10 385/451/10 384/448/10
s 0
f 727/809/7 725/807/7 726/808/7
f 552/634/10 363/407/10 362/404/10
f 608/690/6 603/685/6 607/689/6
s 1
f 469/551/10 464/546/10 468/550/10
f 424/490/10 495/577/10 499/581/10
s 0
f 639/721/6 634/716/6 638/720/6
s 1
f 476/558/10 382/445/10 381/443/10
f 577/659/6 446/515/6 576/658/6
f 603/685/6 598/680/6 602/684/6
f 495/577/10 490/572/10 494/576/10
s 0
f 736/818/7 734/816/7 735/817/7
s 1
f 604/686/6 599/681/6 603/685/6
s 0
f 629/711/6 624/706/6 628/710/6
f 621/703/6 616/698/6 620/702/6
f 333/347/6 593/675/6 597/679/6
f 348/377/9 364/409/9 365/410/9
s 1
f 470/552/10 465/547/10 469/551/10
s 0
f 616/698/6 611/693/6 615/697/6
f 695/777/7 751/833/7 694/776/7
f 745/827/7 750/832/7 751/833/7
f 697/779/7 749/831/7 696/778/7
f 747/829/7 748/830/7 749/831/7
f 696/778/7 745/827/7 695/777/7
f 749/831/7 744/826/7 745/827/7
s 1
f 366/413/12 753/835/7 536/618/12
f 752/834/7 755/837/7 753/835/7
f 754/836/7 706/788/7 755/837/7
s 0
f 704/786/7 758/840/7 705/787/7
f 705/787/11 759/841/11 706/788/11
f 761/843/6 765/847/6 762/844/6
f 763/845/7 764/846/7 761/843/7
f 764/846/6 768/850/6 765/847/6
f 766/848/7 767/849/7 764/846/7
f 770/852/7 773/855/7 771/853/7
f 760/842/6 771/853/6 761/843/6
f 774/856/8 777/861/8 775/858/8
f 768/850/6 774/857/6 765/847/6
s 1
f 673/755/6 669/751/6 668/750/6
f 582/664/6 578/660/6 413/479/6
f 353/386/6 352/384/6 673/755/6
s 0
f 711/793/7 524/606/7 369/418/7
s 1
f 453/528/6 688/770/6 687/769/6
s 0
f 455/532/8 324/332/8 325/333/8
s 1
f 663/745/6 659/741/6 658/740/6
s 0
f 349/379/9 350/380/9 363/406/9
s 1
f 488/570/10 484/566/10 379/439/10
s 0
f 336/353/6 335/351/6 605/687/6
f 346/372/9 347/374/9 366/412/9
f 731/813/7 732/814/7 721/803/7
f 717/799/7 727/809/7 726/808/7
s 1
f 609/691/6 605/687/6 604/686/6
f 330/341/6 329/339/6 581/663/6
s 0
f 361/402/9 352/385/9 353/387/9
f 626/708/6 622/704/6 402/468/6
f 630/712/6 626/708/6 401/467/6
f 429/495/10 428/494/10 515/597/10
f 359/398/9 354/389/9 355/390/9
s 1
f 587/669/6 583/665/6 582/664/6
s 0
f 487/569/10 483/565/10 482/564/10
f 732/814/7 733/815/7 720/802/7
f 454/530/8 455/532/8 456/534/8
f 702/784/7 435/501/7 543/625/7
f 554/636/10 550/632/10 549/631/10
s 1
f 674/756/6 670/752/6 390/456/6
s 0
f 347/374/9 348/377/9 365/410/9
s 1
f 567/649/10 690/772/10 564/646/10
s 0
f 406/472/11 407/473/11 422/488/11
f 650/732/6 646/728/6 396/462/6
f 613/695/6 609/691/6 608/690/6
f 728/810/7 729/811/7 724/806/7
s 1
f 580/662/6 576/658/6 575/657/6
f 610/692/6 606/688/6 406/472/6
f 320/323/6 356/392/6 689/771/6
f 325/333/10 443/509/10 573/655/10
s 0
f 643/725/6 639/721/6 638/720/6
s 1
f 497/579/10 493/575/10 492/574/10
f 588/670/6 584/666/6 583/665/6
s 0
f 719/801/7 488/570/7 378/436/7
s 1
f 415/481/10 327/335/10 451/525/10
s 0
f 642/724/6 638/720/6 398/464/6
f 433/499/11 396/462/11 397/463/11
f 428/494/11 401/467/11 402/468/11
f 368/416/9 345/370/9 346/372/9
f 524/606/10 520/602/10 370/420/10
f 383/446/9 330/340/9 331/342/9
f 532/614/10 528/610/10 368/417/10
f 607/689/6 603/685/6 602/684/6
s 1
f 687/769/6 683/765/6 682/764/6
s 0
f 526/608/10 522/604/10 521/603/10
s 1
f 671/753/6 667/749/6 666/748/6
s 0
f 615/697/6 611/693/6 610/692/6
f 653/735/6 649/731/6 648/730/6
f 555/637/10 551/633/10 550/632/10
s 1
f 624/706/6 620/702/6 619/701/6
f 542/624/10 538/620/10 537/619/10
s 0
f 748/830/7 553/635/7 552/634/7
s 1
f 677/759/6 673/755/6 672/754/6
s 0
f 358/396/9 355/390/9 356/393/9
f 382/444/9 331/342/9 332/344/9
f 427/493/10 426/492/10 507/589/10
f 622/704/6 618/700/6 403/469/6
f 638/720/6 634/716/6 399/465/6
s 1
f 417/483/10 416/482/10 467/549/10
f 572/654/10 568/650/10 567/649/10
f 477/559/10 473/555/10 472/554/10
s 0
f 407/473/11 408/474/11 421/487/11
s 1
f 678/760/6 674/756/6 389/455/6
s 0
f 342/365/6 341/362/6 629/711/6
f 374/428/9 339/358/9 340/360/9
f 432/498/11 397/463/11 398/464/11
f 371/422/9 342/364/9 343/366/9
f 369/419/9 344/368/9 345/370/9
f 370/421/9 343/366/9 344/368/9
f 375/430/9 338/357/9 339/358/9
s 1
f 690/772/10 561/643/10 560/642/10
f 660/742/6 656/738/6 655/737/6
s 0
f 658/740/6 654/736/6 394/460/6
f 700/782/7 533/615/7 532/614/7
f 438/504/10 437/503/10 551/633/10
f 381/442/9 332/344/9 333/346/9
f 345/371/6 344/369/6 641/723/6
f 520/602/10 516/598/10 371/423/10
f 341/362/6 340/361/6 625/707/6
f 417/483/11 412/478/11 413/479/11
s 1
f 356/392/6 355/391/6 685/767/6
s 0
f 442/508/11 387/453/11 388/454/11
f 419/485/11 410/476/11 411/477/11
f 439/505/11 390/456/11 391/457/11
f 443/509/11 386/452/11 387/453/11
s 1
f 346/373/6 345/371/6 645/727/6
s 0
f 713/795/7 526/608/7 525/607/7
f 493/575/10 489/571/10 488/570/10
s 1
f 574/656/6 444/511/6 326/334/6
f 562/644/10 558/640/10 557/639/10
s 0
f 431/497/10 430/496/10 523/605/10
f 429/495/11 400/466/11 401/467/11
f 427/493/11 402/468/11 403/469/11
f 372/424/9 341/363/9 342/364/9
f 430/496/11 399/465/11 400/466/11
f 431/497/11 398/464/11 399/465/11
f 373/426/9 340/360/9 341/363/9
f 343/367/6 342/365/6 633/715/6
f 648/730/6 644/726/6 643/725/6
s 1
f 564/646/10 560/642/10 360/400/10
f 576/658/6 446/515/6 445/513/6
f 503/585/10 499/581/10 498/580/10
f 418/484/10 417/483/10 471/553/10
s 0
f 440/506/11 389/455/11 390/456/11
f 441/507/11 388/454/11 389/455/11
f 418/484/11 411/477/11 412/478/11
f 428/494/10 427/493/10 511/593/10
f 420/486/11 409/475/11 410/476/11
s 1
f 565/647/10 563/645/10 562/644/10
f 443/509/10 442/508/10 569/651/10
s 0
f 445/512/7 446/514/7 449/520/7
f 661/743/6 657/739/6 656/738/6
s 1
f 440/506/10 439/505/10 559/641/10
f 467/549/10 463/545/10 462/544/10
f 551/633/10 547/629/10 546/628/10
s 0
f 446/514/7 447/516/7 448/518/7
s 1
f 685/767/6 681/763/6 680/762/6
f 456/535/10 573/655/10 572/654/10
s 0
f 335/350/9 336/352/9 377/434/9
s 1
f 473/555/10 469/551/10 468/550/10
f 585/667/6 581/663/6 580/662/6
f 339/359/6 338/356/6 617/699/6
s 0
f 670/752/6 666/748/6 391/457/6
s 1
f 586/668/6 582/664/6 412/478/6
f 426/492/10 425/491/10 503/585/10
f 354/388/6 353/386/6 677/759/6
f 366/413/12 536/618/12 540/622/6
s 0
f 710/792/7 527/609/7 526/608/7
f 534/616/10 530/612/10 529/611/10
s 1
f 659/741/6 655/737/6 654/736/6
s 0
f 640/722/6 636/718/6 635/717/6
f 669/751/6 665/747/6 664/746/6
f 733/815/7 487/569/7 486/568/7
f 715/797/7 507/589/7 506/588/7
s 1
f 676/758/6 672/754/6 671/753/6
s 0
f 481/563/10 477/559/10 476/558/10
f 507/589/10 503/585/10 502/584/10
f 494/576/10 490/572/10 489/571/10
f 514/596/10 510/592/10 509/591/10
s 1
f 435/501/10 434/500/10 539/621/10
f 348/376/6 347/375/6 653/735/6
f 578/660/6 574/656/6 414/480/6
s 0
f 535/617/10 531/613/10 530/612/10
f 527/609/10 523/605/10 522/604/10
f 394/460/11 395/461/11 434/500/11
f 641/723/6 637/719/6 636/718/6
f 380/440/9 333/346/9 334/348/9
s 1
f 657/739/6 653/735/6 652/734/6
f 632/714/6 628/710/6 627/709/6
f 462/544/10 450/523/10 449/521/10
s 0
f 347/375/6 346/373/6 649/731/6
f 517/599/10 513/595/10 512/594/10
f 541/623/10 537/619/10 536/618/10
f 634/716/6 630/712/6 400/466/6
s 1
f 549/631/10 545/627/10 544/626/10
s 0
f 631/713/6 627/709/6 626/708/6
f 649/731/6 645/727/6 644/726/6
f 430/496/10 429/495/10 519/601/10
f 644/726/6 640/722/6 639/721/6
f 336/352/9 337/355/9 376/432/9
s 1
f 474/556/10 470/552/10 469/551/10
s 0
f 512/594/10 508/590/10 373/427/10
f 598/680/6 594/676/6 409/475/6
s 1
f 518/600/10 514/596/10 513/595/10
s 0
f 594/676/6 590/672/6 410/476/6
f 340/361/6 339/359/6 621/703/6
s 1
f 683/765/6 679/761/6 678/760/6
s 0
f 334/348/9 335/350/9 378/437/9
f 668/750/6 664/746/6 663/745/6
f 385/450/9 328/336/9 329/338/9
f 620/702/6 616/698/6 615/697/6
f 338/356/6 337/354/6 613/695/6
s 1
f 600/682/6 596/678/6 595/677/6
f 452/526/6 689/771/6 688/770/6
f 680/762/6 676/758/6 675/757/6
f 743/825/10 742/824/10 741/823/10
s 0
f 452/527/8 453/529/8 458/538/8
s 1
f 459/540/10 570/652/10 357/395/10
s 0
f 423/489/10 422/488/10 491/573/10
f 739/821/7 467/549/7 466/548/7
f 547/629/10 543/625/10 542/624/10
s 1
f 510/592/10 506/588/10 505/587/10
s 0
f 737/819/6 730/812/6 723/805/6
f 625/707/6 621/703/6 620/702/6
s 1
f 612/694/6 608/690/6 607/689/6
s 0
f 614/696/6 610/692/6 405/471/6
s 1
f 591/673/6 587/669/6 586/668/6
f 478/560/10 474/556/10 473/555/10
f 571/653/10 567/649/10 566/648/10
s 0
f 480/562/10 476/558/10 381/443/10
s 1
f 335/351/6 334/349/6 601/683/6
f 472/554/10 468/550/10 383/447/10
f 483/565/10 479/561/10 478/560/10
f 468/550/10 464/546/10 384/448/10
s 0
f 645/727/6 641/723/6 640/722/6
f 363/406/9 350/380/9 351/383/9
f 322/329/9 328/336/9 385/450/9
f 712/794/7 525/607/7 524/606/7
f 352/384/6 351/382/6 669/751/6
s 1
f 442/508/10 441/507/10 565/647/10
f 461/543/10 449/521/10 448/519/10
f 498/580/10 494/576/10 493/575/10
s 0
f 416/482/11 413/479/11 414/480/11
s 1
f 419/485/10 418/484/10 475/557/10
s 0
f 730/812/7 731/813/7 722/804/7
f 405/471/11 406/472/11 423/489/11
s 1
f 569/651/10 565/647/10 691/773/10
s 0
f 646/728/6 642/724/6 397/463/6
f 444/510/7 445/512/7 450/522/7
f 704/786/6 705/787/6 706/788/6
s 1
f 581/663/6 577/659/6 576/658/6
s 0
f 439/505/10 438/504/10 555/637/10
f 706/788/11 536/618/11 532/614/11
f 705/787/7 532/614/7 367/415/7
f 421/487/11 408/474/11 409/475/11
f 447/516/7 322/329/7 323/331/7
f 647/729/6 643/725/6 642/724/6
f 326/334/7 444/510/7 451/524/7
s 1
f 355/391/6 354/388/6 681/763/6
s 0
f 414/480/11 326/334/11 327/335/11
f 484/566/10 480/562/10 380/441/10
s 1
f 328/337/6 322/330/6 447/517/6
f 559/641/10 555/637/10 554/636/10
f 579/661/6 575/657/6 574/656/6
f 593/675/6 589/671/6 588/670/6
f 589/671/6 585/667/6 584/666/6
f 590/672/6 586/668/6 411/477/6
f 570/652/10 566/648/10 358/397/10
f 573/655/10 569/651/10 568/650/10
s 0
f 356/393/9 320/324/9 321/328/9
f 553/635/10 549/631/10 548/630/10
s 1
f 689/771/6 685/767/6 684/766/6
f 681/763/6 677/759/6 676/758/6
f 636/718/6 632/714/6 631/713/6
s 0
f 351/382/6 350/381/6 665/747/6
f 395/461/11 396/462/11 433/499/11
s 1
f 545/627/10 541/623/10 540/622/10
f 691/773/10 562/644/10 561/643/10
s 0
f 324/332/11 386/452/11 443/509/11
f 746/828/7 554/636/7 553/635/7
s 1
f 437/503/10 436/502/10 547/629/10
f 548/630/10 544/626/10 364/408/10
f 688/770/6 684/766/6 683/765/6
f 543/625/10 539/621/10 538/620/10
f 682/764/6 678/760/6 388/454/6
f 665/747/6 661/743/6 660/742/6
f 583/665/6 579/661/6 578/660/6
f 575/657/6 445/513/6 444/511/6
s 0
f 601/683/6 597/679/6 596/678/6
s 1
f 662/744/6 658/740/6 393/459/6
s 0
f 453/529/8 454/530/8 457/536/8
f 519/601/10 515/597/10 514/596/10
s 1
f 485/567/10 481/563/10 480/562/10
s 0
f 426/492/11 403/469/11 404/470/11
s 1
f 463/545/10 451/525/10 450/523/10
f 664/746/6 660/742/6 659/741/6
s 0
f 666/748/6 662/744/6 392/458/6
f 516/598/10 512/594/10 372/425/10
f 513/595/10 509/591/10 508/590/10
f 349/378/6 348/376/6 657/739/6
f 525/607/10 521/603/10 520/602/10
f 344/369/6 343/367/6 637/719/6
s 1
f 651/733/6 647/729/6 646/728/6
s 0
f 509/591/10 505/587/10 504/586/10
f 655/737/6 651/733/6 650/732/6
f 508/590/10 504/586/10 374/429/10
f 635/717/6 631/713/6 630/712/6
s 1
f 522/604/10 518/600/10 517/599/10
f 602/684/6 598/680/6 408/474/6
s 0
f 384/449/9 329/338/9 330/340/9
s 1
f 465/547/10 461/543/10 460/542/10
s 0
f 420/486/10 419/485/10 479/561/10
s 1
f 455/533/6 686/768/6 386/452/6
s 0
f 623/705/6 619/701/6 618/700/6
f 393/459/11 394/460/11 435/501/11
f 425/491/10 424/490/10 499/581/10
s 1
f 490/572/10 486/568/10 485/567/10
s 0
f 633/715/6 629/711/6 628/710/6
f 515/597/10 511/593/10 510/592/10
f 421/487/10 420/486/10 483/565/10
s 1
f 482/564/10 478/560/10 477/559/10
s 0
f 628/710/6 624/706/6 623/705/6
s 1
f 350/381/6 349/378/6 661/743/6
f 337/354/6 336/353/6 609/691/6
f 496/578/10 492/574/10 377/435/10
f 489/571/10 485/567/10 484/566/10
f 441/507/10 440/506/10 563/645/10
f 466/548/10 462/544/10 461/543/10
f 422/488/10 421/487/10 487/569/10
f 479/561/10 475/557/10 474/556/10
f 475/557/10 471/553/10 470/552/10
s 0
f 337/355/9 338/357/9 375/430/9
f 404/470/11 405/471/11 424/490/11
s 1
f 416/482/10 415/481/10 463/545/10
s 0
f 438/504/11 391/457/11 392/458/11
s 1
f 611/693/6 607/689/6 606/688/6
f 458/539/10 571/653/10 570/652/10
s 0
f 618/700/6 614/696/6 404/470/6
f 504/586/10 500/582/10 375/431/10
f 500/582/10 496/578/10 376/433/10
s 1
f 561/643/10 557/639/10 556/638/10
f 329/339/6 328/337/6 577/659/6
f 599/681/6 595/677/6 594/676/6
f 596/678/6 592/674/6 591/673/6
f 331/343/6 330/341/6 585/667/6
f 433/499/10 432/498/10 531/613/10
s 0
f 506/588/10 502/584/10 501/583/10
f 521/603/10 517/599/10 516/598/10
s 1
f 563/645/10 559/641/10 558/640/10
s 0
f 672/754/6 668/750/6 667/749/6
s 1
f 656/738/6 652/734/6 651/733/6
s 0
f 334/349/6 333/347/6 597/679/6
f 499/581/10 495/577/10 494/576/10
s 1
f 332/345/6 331/343/6 589/671/6
f 654/736/6 650/732/6 395/461/6
f 592/674/6 588/670/6 587/669/6
f 597/679/6 593/675/6 592/674/6
f 560/642/10 556/638/10 361/403/10
s 0
f 533/615/10 529/611/10 528/610/10
f 606/688/6 602/684/6 407/473/6
s 1
f 550/632/10 546/628/10 545/627/10
s 0
f 544/626/10 540/622/10 365/411/10
f 627/709/6 623/705/6 622/704/6
s 1
f 584/666/6 580/662/6 579/661/6
s 0
f 502/584/10 498/580/10 497/579/10
f 667/749/6 663/745/6 662/744/6
f 708/790/7 519/601/7 518/600/7
f 744/826/7 552/634/7 362/404/7
s 1
f 457/537/10 572/654/10 571/653/10
f 686/768/6 682/764/6 387/453/6
f 684/766/6 680/762/6 679/761/6
f 566/648/10 564/646/10 359/399/10
f 546/628/10 542/624/10 541/623/10
f 605/687/6 601/683/6 600/682/6
f 675/757/6 671/753/6 670/752/6
s 0
f 619/701/6 615/697/6 614/696/6
s 1
f 679/761/6 675/757/6 674/756/6
s 0
f 698/780/7 535/617/7 534/616/7
f 392/458/11 393/459/11 436/502/11
f 652/734/6 648/730/6 647/729/6
s 1
f 454/531/6 687/769/6 686/768/6
s 0
f 505/587/10 501/583/10 500/582/10
f 320/325/8 452/527/8 459/541/8
s 1
f 486/568/10 482/564/10 481/563/10
s 0
f 362/405/9 351/383/9 352/385/9
f 360/401/9 353/387/9 354/389/9
f 637/719/6 633/715/6 632/714/6
f 693/775/7 691/773/7 690/772/7
s 1
f 617/699/6 613/695/6 612/694/6
s 0
f 595/677/6 591/673/6 590/672/6
s 1
f 464/546/10 460/542/10 385/451/10
s 0
f 727/809/7 728/810/7 725/807/7
f 552/634/10 548/630/10 363/407/10
f 608/690/6 604/686/6 603/685/6
s 1
f 469/551/10 465/547/10 464/546/10
f 424/490/10 423/489/10 495/577/10
s 0
f 639/721/6 635/717/6 634/716/6
s 1
f 476/558/10 472/554/10 382/445/10
f 577/659/6 447/517/6 446/515/6
f 603/685/6 599/681/6 598/680/6
f 495/577/10 491/573/10 490/572/10
s 0
f 736/818/7 737/819/7 734/816/7
s 1
f 604/686/6 600/682/6 599/681/6
s 0
f 629/711/6 625/707/6 624/706/6
f 621/703/6 617/699/6 616/698/6
f 333/347/6 332/345/6 593/675/6
f 348/377/9 349/379/9 364/409/9
s 1
f 470/552/10 466/548/10 465/547/10
s 0
f 616/698/6 612/694/6 611/693/6
f 695/777/7 745/827/7 751/833/7
f 745/827/7 744/826/7 750/832/7
f 697/779/7 747/829/7 749/831/7
f 747/829/7 746/828/7 748/830/7
f 696/778/7 749/831/7 745/827/7
f 749/831/7 748/830/7 744/826/7
s 1
f 366/413/12 752/834/7 753/835/7
f 752/834/7 754/836/7 755/837/7
f 754/836/7 756/838/7 706/788/7
s 0
f 704/786/7 757/839/7 758/840/7
f 705/787/11 758/840/11 759/841/11
f 761/843/6 764/846/6 765/847/6
f 763/845/7 766/848/7 764/846/7
f 764/846/6 767/849/6 768/850/6
f 766/848/7 769/851/7 767/849/7
f 770/852/7 772/854/7 773/855/7
f 760/842/6 770/852/6 771/853/6
f 774/856/8 776/859/8 777/861/8
f 768/850/6 776/860/6 774/857/6
g SAFEGROUND_TOP.001_Mesh
v -2.500000 1.000003 -15.000000
v 2.500000 1.000000 1.999999
v 2.500000 0.999999 4.000000
v -1.500000 1.000003 -15.000000
v 1.500000 1.000000 2.000000
v -0.500000 0.999999 4.000000
v 0.500000 0.999999 4.000000
v 1.500000 0.999999 4.000000
v -0.500000 2.999998 12.000001
v 0.500000 2.999998 12.000001
v -0.500000 2.999998 13.000001
v 0.500000 2.999998 13.000001
v -2.500000 3.999998 10.000001
v -2.500000 3.999999 9.000001
v -1.500000 3.999999 9.000001
v -0.500000 3.999999 9.000001
v 0.500000 3.999999 9.000001
v -1.500000 3.999998 10.000001
v -0.500000 3.999998 10.000001
v 0.500000 3.999998 10.000001
v 2.500000 7.000000 4.000001
v 2.500000 6.999999 5.000001
v 1.500000 7.000000 4.000001
v 1.500000 6.999999 5.000001
v -1.500000 7.000000 4.000001
v -0.500000 7.000000 4.000001
v 0.500000 7.000000 4.000001
v -1.500000 6.999999 5.000001
v -0.500000 6.999999 5.000001
v 0.500000 6.999999 5.000001
v 2.500000 5.999999 6.000001
v 2.500000 5.999999 7.000001
v 1.500000 5.999999 6.000001
v 1.500000 5.999999 7.000001
v 0.500000 8.000000 0.000001
v 1.500000 8.000000 0.000001
v 0.500000 8.000000 1.000001
v 1.500000 8.000000 1.000001
v -2.500000 7.000000 3.000002
v -2.500000 7.000000 2.000002
v 2.500000 7.000000 2.000000
v 2.500000 7.000000 3.000000
v 1.500000 7.000000 2.000001
v 1.500000 7.000000 3.000001
v -1.500000 7.000000 2.000001
v -0.500000 7.000000 2.000001
v 0.500000 7.000000 2.000001
v -1.500000 7.000000 3.000001
v -0.500000 7.000000 3.000001
v 0.500000 7.000000 3.000001
v 0.500000 9.000001 -2.999999
v 1.500000 9.000001 -2.999999
v 0.500000 9.000000 -1.999999
v 1.500000 9.000000 -1.999999
v 0.500000 9.000001 -7.999999
v 1.500000 9.000001 -7.999999
v 0.500000 9.000001 -6.999999
v 1.500000 9.000001 -6.999999
v -2.500000 9.000001 -5.999999
v -2.500000 9.000001 -6.999999
v -1.500000 9.000001 -6.999999
v -1.500000 9.000001 -5.999999
v 0.500000 6.000001 -7.999999
v 1.500000 6.000001 -7.999999
v 0.500000 6.000002 -11.999998
v 1.500000 6.000002 -11.999998
v 0.500000 8.000002 -12.999998
v 1.500000 8.000002 -12.999999
v 0.500000 8.000002 -11.999998
v 1.500000 8.000002 -11.999998
v -2.500000 3.000002 -14.999999
v -1.500000 3.000002 -14.999999
v -2.500000 3.999999 6.000000
v -1.500000 3.999999 6.000000
v -2.500000 3.999999 5.000000
v -1.500000 3.999999 5.000000
v -2.500000 3.999999 7.000000
v -1.500000 3.999999 7.000000
v -2.500000 5.000000 4.000001
v -1.500000 5.000000 4.000001
v -2.500000 4.999999 5.000001
v -1.500000 4.999999 5.000001
v -1.500000 7.000001 -4.999999
v -1.500000 7.000000 -3.999999
v -0.500000 7.000001 -4.999999
v -0.500000 7.000000 -3.999999
v 0.500000 7.000001 -4.999999
v 0.500000 7.000000 -3.999999
v 1.500000 7.000001 -4.999999
v 1.500000 7.000000 -3.999999
v -1.500000 7.000001 -5.999999
v -0.500000 7.000001 -5.999999
v 0.500000 7.000000 -2.999999
v 1.500000 7.000000 -2.999999
vn -0.0000 1.0000 -0.0000
vn -0.0000 -0.0000 -1.0000
vt 0.625000 0.250000
vt 0.625000 0.641667
vt 0.625000 0.658333
vt 0.625000 0.300000
vt 0.675000 0.641667
vt 0.775000 0.658333
vt 0.725000 0.658333
vt 0.675000 0.658333
vt 0.775000 0.725000
vt 0.725000 0.725000
vt 0.775000 0.733333
vt 0.725000 0.733333
vt 0.875000 0.708333
vt 0.875000 0.700000
vt 0.825000 0.700000
vt 0.775000 0.700000
vt 0.725000 0.700000
vt 0.825000 0.708333
vt 0.775000 0.708333
vt 0.725000 0.708333
vt 0.625000 0.658333
vt 0.625000 0.666667
vt 0.675000 0.658333
vt 0.675000 0.666667
vt 0.825000 0.658333
vt 0.775000 0.658333
vt 0.725000 0.658333
vt 0.825000 0.666667
vt 0.775000 0.666667
vt 0.725000 0.666667
vt 0.625000 0.675000
vt 0.625000 0.683333
vt 0.675000 0.675000
vt 0.675000 0.683333
vt 0.725000 0.625000
vt 0.675000 0.625000
vt 0.725000 0.633333
vt 0.675000 0.633333
vt 0.875000 0.650000
vt 0.875000 0.641667
vt 0.625000 0.641667
vt 0.625000 0.650000
vt 0.675000 0.641667
vt 0.675000 0.650000
vt 0.825000 0.641667
vt 0.775000 0.641667
vt 0.725000 0.641667
vt 0.825000 0.650000
vt 0.775000 0.650000
vt 0.725000 0.650000
vt 0.725000 0.600000
vt 0.675000 0.600000
vt 0.725000 0.608333
vt 0.675000 0.608333
vt 0.725000 0.558333
vt 0.675000 0.558333
vt 0.725000 0.566667
vt 0.675000 0.566667
vt 0.875000 0.575000
vt 0.875000 0.566667
vt 0.825000 0.566667
vt 0.825000 0.575000
vt 0.725000 0.558333
vt 0.675000 0.558333
vt 0.725000 0.558333
vt 0.675000 0.558333
vt 0.725000 0.516667
vt 0.675000 0.516667
vt 0.725000 0.525000
vt 0.675000 0.525000
vt 0.625000 0.250000
vt 0.625000 0.300000
vt 0.875000 0.675000
vt 0.825000 0.675000
vt 0.875000 0.666667
vt 0.825000 0.666667
vt 0.875000 0.675000
vt 0.825000 0.675000
vt 0.875000 0.658333
vt 0.825000 0.658333
vt 0.875000 0.666667
vt 0.825000 0.666667
vt 0.825000 0.583333
vt 0.825000 0.591667
vt 0.775000 0.583333
vt 0.775000 0.591667
vt 0.775000 0.583333
vt 0.775000 0.591667
vt 0.775000 0.583333
vt 0.775000 0.591667
vt 0.825000 0.583333
vt 0.775000 0.583333
vt 0.775000 0.591667
vt 0.775000 0.591667
s 0
g off
g SAFEGROUND_TOP.001_LighterTopColorSAFEGROUND
usemtl LighterTopColorSAFEGROUND
f 801/885/13 804/888/13 807/891/13
s 1
f 796/880/13 792/876/13 795/879/13
s 0
f 826/910/13 822/906/13 825/909/13
f 825/909/13 817/901/13 816/900/13
s 1
f 847/931/13 844/928/13 846/930/13
s 0
f 809/893/13 810/894/13 811/895/13
f 819/903/13 820/904/13 821/905/13
s 1
f 835/919/13 832/916/13 834/918/13
s 0
f 795/879/13 791/875/13 790/874/13
f 818/902/14 782/866/14 820/904/14
f 798/882/14 785/869/14 800/884/14
f 831/915/13 828/912/13 830/914/13
f 839/923/13 837/921/13 836/920/13
s 1
f 806/890/13 802/886/13 805/889/13
s 0
f 804/888/14 783/867/14 803/887/14
f 807/891/13 803/887/13 806/890/13
f 821/905/13 824/908/13 827/911/13
f 849/933/14 778/862/14 848/932/14
f 827/911/13 823/907/13 826/910/13
f 842/926/13 841/925/13 843/927/13
f 815/899/13 812/896/13 814/898/13
f 799/883/13 800/884/13 801/885/13
f 797/881/13 793/877/13 796/880/13
s 1
f 789/873/13 786/870/13 788/872/13
f 851/935/13 852/936/13 850/934/13
f 850/934/13 855/939/13 851/935/13
s 0
f 859/943/13 856/940/13 858/942/13
f 863/947/13 860/944/13 861/945/13
f 862/946/13 868/952/13 860/944/13
f 863/947/13 864/948/13 862/946/13
f 865/949/13 866/950/13 864/948/13
f 865/949/13 871/955/13 867/951/13
f 801/885/13 800/884/13 804/888/13
s 1
f 796/880/13 793/877/13 792/876/13
s 0
f 826/910/13 823/907/13 822/906/13
f 825/909/13 822/906/13 817/901/13
s 1
f 847/931/13 845/929/13 844/928/13
s 0
f 809/893/13 808/892/13 810/894/13
f 819/903/13 818/902/13 820/904/13
s 1
f 835/919/13 833/917/13 832/916/13
s 0
f 795/879/13 792/876/13 791/875/13
f 818/902/14 779/863/14 782/866/14
f 798/882/14 780/864/14 785/869/14
f 831/915/13 829/913/13 828/912/13
f 839/923/13 838/922/13 837/921/13
s 1
f 806/890/13 803/887/13 802/886/13
s 0
f 804/888/14 784/868/14 783/867/14
f 807/891/13 804/888/13 803/887/13
f 821/905/13 820/904/13 824/908/13
f 849/933/14 781/865/14 778/862/14
f 827/911/13 824/908/13 823/907/13
f 842/926/13 840/924/13 841/925/13
f 815/899/13 813/897/13 812/896/13
f 799/883/13 798/882/13 800/884/13
f 797/881/13 794/878/13 793/877/13
s 1
f 789/873/13 787/871/13 786/870/13
f 851/935/13 853/937/13 852/936/13
f 850/934/13 854/938/13 855/939/13
s 0
f 859/943/13 857/941/13 856/940/13
f 863/947/13 862/946/13 860/944/13
f 862/946/13 869/953/13 868/952/13
f 863/947/13 865/949/13 864/948/13
f 865/949/13 867/951/13 866/950/13
f 865/949/13 870/954/13 871/955/13
